<svg width="24" height="24" viewBox="0 0 24 24" fill="none" xmlns="http://www.w3.org/2000/svg">
<path d="M22.1324 8.00837C21.5564 6.63383 20.7186 5.38446 19.6655 4.32991C18.6156 3.27353 17.3684 2.43363 15.9948 1.85793C14.5876 1.2653 13.0757 0.961513 11.5488 0.964623H11.4974C9.94442 0.972324 8.44275 1.28036 7.02835 1.88616C5.6665 2.46777 4.43102 3.30916 3.39096 4.36328C2.34809 5.41547 1.51983 6.66046 0.952348 8.02891C0.363268 9.45194 0.0647792 10.9784 0.0744463 12.5185C0.0821472 14.3 0.508263 16.0686 1.30402 17.6499V21.5517C1.30402 22.2037 1.83282 22.7325 2.48226 22.7325H6.37891C7.96754 23.5341 9.7206 23.9559 11.5 23.9646H11.5539C13.089 23.9646 14.5752 23.6669 15.9768 23.0842C17.3435 22.5153 18.586 21.6852 19.6347 20.6404C20.6923 19.5905 21.524 18.3635 22.1067 16.9953C22.7099 15.5783 23.018 14.0715 23.0257 12.516C23.0308 10.9527 22.7279 9.4356 22.1324 8.00837ZM6.42512 13.6968C5.74744 13.6968 5.19554 13.1449 5.19554 12.4646C5.19554 11.7844 5.74744 11.2325 6.42512 11.2325C7.10279 11.2325 7.65469 11.7844 7.65469 12.4646C7.65469 13.1449 7.10536 13.6968 6.42512 13.6968ZM11.5488 13.6968C10.8711 13.6968 10.3192 13.1449 10.3192 12.4646C10.3192 11.7844 10.8711 11.2325 11.5488 11.2325C12.2265 11.2325 12.7784 11.7844 12.7784 12.4646C12.7784 13.1449 12.2265 13.6968 11.5488 13.6968ZM16.6724 13.6968C15.9948 13.6968 15.4429 13.1449 15.4429 12.4646C15.4429 11.7844 15.9948 11.2325 16.6724 11.2325C17.3501 11.2325 17.902 11.7844 17.902 12.4646C17.902 13.1449 17.3501 13.6968 16.6724 13.6968Z" fill="#1C076D"/>
</svg>
