<svg width="24" height="24" viewBox="0 0 24 24" fill="none" xmlns="http://www.w3.org/2000/svg">
<path d="M22.96 7.57893C22.3841 6.20438 21.5462 4.95502 20.4932 3.90047C19.4432 2.84408 18.196 2.00419 16.8224 1.42848C15.4152 0.835852 13.9033 0.53207 12.3764 0.53518H12.3251C10.7721 0.542881 9.27038 0.850916 7.85599 1.45672C6.49414 2.03833 5.25866 2.87971 4.2186 3.93384C3.17572 4.98602 2.34747 6.23102 1.77998 7.59946C1.1909 9.02249 0.892416 10.549 0.902083 12.0891C0.909784 13.8706 1.3359 15.6392 2.13166 17.2204V21.1222C2.13166 21.7742 2.66045 22.303 3.3099 22.303H7.20655C8.79517 23.1047 10.5482 23.5264 12.3276 23.5352H12.3815C13.9166 23.5352 15.4029 23.2374 16.8044 22.6547C18.1711 22.0859 19.4136 21.2558 20.4623 20.211C21.5199 19.1611 22.3516 17.9341 22.9343 16.5659C23.5376 15.1489 23.8456 13.6421 23.8533 12.0865C23.8584 10.5232 23.5555 9.00616 22.96 7.57893ZM7.25275 13.2673C6.57507 13.2673 6.02318 12.7154 6.02318 12.0352C6.02318 11.3549 6.57507 10.803 7.25275 10.803C7.93043 10.803 8.48233 11.3549 8.48233 12.0352C8.48233 12.7154 7.933 13.2673 7.25275 13.2673ZM12.3764 13.2673C11.6987 13.2673 11.1468 12.7154 11.1468 12.0352C11.1468 11.3549 11.6987 10.803 12.3764 10.803C13.0541 10.803 13.606 11.3549 13.606 12.0352C13.606 12.7154 13.0541 13.2673 12.3764 13.2673ZM17.5001 13.2673C16.8224 13.2673 16.2705 12.7154 16.2705 12.0352C16.2705 11.3549 16.8224 10.803 17.5001 10.803C18.1777 10.803 18.7296 11.3549 18.7296 12.0352C18.7296 12.7154 18.1777 13.2673 17.5001 13.2673Z" fill="#5549FF"/>
</svg>
