<svg width="25" height="25" viewBox="0 0 25 25" fill="none" xmlns="http://www.w3.org/2000/svg">
<path d="M14.1094 12.2918C14.1094 12.5143 14.0434 12.7318 13.9198 12.9168C13.7962 13.1018 13.6205 13.246 13.4149 13.3311C13.2093 13.4163 12.9831 13.4386 12.7649 13.3952C12.5467 13.3518 12.3462 13.2446 12.1889 13.0873C12.0315 12.9299 11.9244 12.7295 11.881 12.5113C11.8376 12.293 11.8599 12.0668 11.945 11.8613C12.0302 11.6557 12.1744 11.48 12.3594 11.3564C12.5444 11.2328 12.7619 11.1668 12.9844 11.1668C13.2827 11.1668 13.5689 11.2853 13.7799 11.4963C13.9908 11.7073 14.1094 11.9934 14.1094 12.2918ZM8.85937 11.1668C8.63687 11.1668 8.41936 11.2328 8.23436 11.3564C8.04935 11.48 7.90516 11.6557 7.82001 11.8613C7.73486 12.0668 7.71258 12.293 7.75599 12.5113C7.7994 12.7295 7.90655 12.9299 8.06388 13.0873C8.22121 13.2446 8.42167 13.3518 8.6399 13.3952C8.85813 13.4386 9.08433 13.4163 9.28989 13.3311C9.49546 13.246 9.67116 13.1018 9.79478 12.9168C9.9184 12.7318 9.98438 12.5143 9.98438 12.2918C9.98437 11.9934 9.86585 11.7073 9.65487 11.4963C9.44389 11.2853 9.15774 11.1668 8.85937 11.1668ZM17.1094 11.1668C16.8869 11.1668 16.6694 11.2328 16.4844 11.3564C16.2994 11.48 16.1552 11.6557 16.07 11.8613C15.9849 12.0668 15.9626 12.293 16.006 12.5113C16.0494 12.7295 16.1565 12.9299 16.3139 13.0873C16.4712 13.2446 16.6717 13.3518 16.8899 13.3952C17.1081 13.4386 17.3343 13.4163 17.5399 13.3311C17.7455 13.246 17.9212 13.1018 18.0448 12.9168C18.1684 12.7318 18.2344 12.5143 18.2344 12.2918C18.2344 11.9934 18.1158 11.7073 17.9049 11.4963C17.6939 11.2853 17.4077 11.1668 17.1094 11.1668ZM22.7344 12.2918C22.7347 13.9751 22.2993 15.6298 21.4704 17.0949C20.6415 18.56 19.4475 19.7855 18.0044 20.6522C16.5614 21.5189 14.9185 21.9973 13.2358 22.0407C11.553 22.0841 9.88768 21.6911 8.40187 20.8999L5.20969 21.964C4.94539 22.0521 4.66177 22.0649 4.39062 22.0009C4.11946 21.9369 3.87149 21.7987 3.67449 21.6017C3.47748 21.4047 3.33924 21.1567 3.27525 20.8855C3.21126 20.6144 3.22405 20.3308 3.31219 20.0665L4.37625 16.8743C3.68076 15.5667 3.29231 14.1178 3.24037 12.6377C3.18844 11.1575 3.47438 9.68503 4.0765 8.3319C4.67862 6.97877 5.5811 5.7806 6.71542 4.82833C7.84975 3.87606 9.18611 3.19472 10.6231 2.83604C12.06 2.47735 13.5598 2.45073 15.0086 2.75822C16.4574 3.0657 17.8171 3.6992 18.9845 4.61062C20.1518 5.52205 21.0963 6.68745 21.746 8.01837C22.3958 9.34928 22.7338 10.8107 22.7344 12.2918ZM21.2344 12.2918C21.234 11.0263 20.9425 9.7778 20.3825 8.64297C19.8224 7.50814 19.0088 6.51737 18.0045 5.74731C17.0003 4.97724 15.8323 4.44853 14.591 4.20208C13.3498 3.95562 12.0684 3.99803 10.8462 4.32602C9.62389 4.65402 8.49346 5.2588 7.54233 6.09358C6.5912 6.92837 5.84486 7.97077 5.36106 9.14015C4.87725 10.3095 4.66895 11.5745 4.75228 12.8373C4.8356 14.1001 5.2083 15.3267 5.84156 16.4224C5.89471 16.5144 5.92771 16.6166 5.93838 16.7223C5.94905 16.828 5.93714 16.9348 5.90344 17.0355L4.73437 20.5418L8.24062 19.3727C8.31699 19.3467 8.39713 19.3334 8.47781 19.3333C8.60953 19.3336 8.73887 19.3685 8.85281 19.4346C10.107 20.1602 11.5302 20.5428 12.9792 20.5437C14.4281 20.5446 15.8518 20.1639 17.1069 19.4398C18.362 18.7157 19.4043 17.6739 20.1288 16.4191C20.8534 15.1643 21.2347 13.7408 21.2344 12.2918Z" fill="#6B7A99"/>
</svg>
