<svg width="21" height="21" viewBox="0 0 21 21" fill="none" xmlns="http://www.w3.org/2000/svg">
<path d="M10.9642 12.5162H9.20971C9.2143 12.1033 9.2464 11.7478 9.30603 11.4496C9.37025 11.1469 9.47804 10.8739 9.6294 10.6308C9.78536 10.3876 9.99176 10.1468 10.2486 9.90825C10.4642 9.71558 10.6523 9.53208 10.8128 9.35776C10.9733 9.18344 11.0995 9.00453 11.1912 8.82103C11.283 8.63295 11.3288 8.42422 11.3288 8.19485C11.3288 7.92878 11.2875 7.70858 11.205 7.53426C11.127 7.35535 11.0077 7.22002 10.8472 7.12827C10.6913 7.03652 10.494 6.99065 10.2555 6.99065C10.0583 6.99065 9.8748 7.03423 9.70509 7.12139C9.53537 7.20397 9.39548 7.33241 9.28539 7.50674C9.1799 7.68106 9.12485 7.91043 9.12027 8.19485H7.125C7.13876 7.56637 7.28325 7.04799 7.55845 6.63971C7.83825 6.22685 8.21208 5.92178 8.67993 5.72452C9.14779 5.52268 9.67298 5.42175 10.2555 5.42175C10.8977 5.42175 11.4481 5.52726 11.9068 5.73828C12.3654 5.94472 12.7163 6.24978 12.9594 6.65348C13.2025 7.05258 13.3241 7.53885 13.3241 8.11227C13.3241 8.51138 13.2461 8.8669 13.0902 9.17885C12.9342 9.48621 12.7301 9.77292 12.4778 10.039C12.2255 10.3051 11.948 10.5803 11.6453 10.8647C11.3839 11.0987 11.205 11.3441 11.1087 11.601C11.0169 11.8579 10.9688 12.163 10.9642 12.5162ZM9.0033 14.6425C9.0033 14.3489 9.10421 14.1057 9.30603 13.9131C9.50785 13.7158 9.77848 13.6172 10.1179 13.6172C10.4527 13.6172 10.7211 13.7158 10.9229 13.9131C11.1293 14.1057 11.2325 14.3489 11.2325 14.6425C11.2325 14.9269 11.1293 15.1677 10.9229 15.365C10.7211 15.5622 10.4527 15.6609 10.1179 15.6609C9.77848 15.6609 9.50785 15.5622 9.30603 15.365C9.10421 15.1677 9.0033 14.9269 9.0033 14.6425Z" fill="#6B7A99"/>
<path fill-rule="evenodd" clip-rule="evenodd" d="M10.3385 19.4393C15.1311 19.4393 19.0162 15.5537 19.0162 10.7605C19.0162 5.96732 15.1311 2.08167 10.3385 2.08167C5.54598 2.08167 1.66085 5.96732 1.66085 10.7605C1.66085 15.5537 5.54598 19.4393 10.3385 19.4393ZM10.3385 20.7605C15.8607 20.7605 20.3372 16.2833 20.3372 10.7605C20.3372 5.23765 15.8607 0.760498 10.3385 0.760498C4.81641 0.760498 0.339844 5.23765 0.339844 10.7605C0.339844 16.2833 4.81641 20.7605 10.3385 20.7605Z" fill="#6B7A99"/>
</svg>
