<svg width="20" height="22" viewBox="0 0 20 22" fill="none" xmlns="http://www.w3.org/2000/svg">
<path d="M19.996 19.9868C19.996 20.2803 19.8794 20.5618 19.6718 20.7694C19.4643 20.9769 19.1828 21.0935 18.8892 21.0935H1.18098C0.887452 21.0935 0.605942 20.9769 0.398383 20.7694C0.190824 20.5618 0.074219 20.2803 0.074219 19.9868V8.35467C0.074102 8.18601 0.112532 8.01956 0.186573 7.86802C0.260614 7.71649 0.368309 7.58388 0.50143 7.48032L9.35555 0.594028C9.54984 0.442895 9.78896 0.36084 10.0351 0.36084C10.2813 0.36084 10.5204 0.442895 10.7147 0.594028L19.5688 7.48032C19.7019 7.58388 19.8096 7.71649 19.8836 7.86802C19.9577 8.01956 19.9961 8.18601 19.996 8.35467V19.9868Z" fill="#1C076D"/>
</svg>
