<svg width="21" height="22" viewBox="0 0 21 22" fill="none" xmlns="http://www.w3.org/2000/svg">
<path d="M20.3295 20.5556C20.3295 20.8491 20.2129 21.1307 20.0053 21.3382C19.7978 21.5458 19.5163 21.6624 19.2227 21.6624H1.51448C1.22095 21.6624 0.939438 21.5458 0.731879 21.3382C0.52432 21.1307 0.407715 20.8491 0.407715 20.5556V8.92351C0.407598 8.75486 0.446028 8.5884 0.520069 8.43687C0.594111 8.28533 0.701805 8.15272 0.834926 8.04917L9.68905 1.16288C9.88333 1.01174 10.1225 0.929688 10.3686 0.929688C10.6147 0.929688 10.8539 1.01174 11.0482 1.16288L19.9023 8.04917C20.0354 8.15272 20.1431 8.28533 20.2171 8.43687C20.2912 8.5884 20.3296 8.75486 20.3295 8.92351V20.5556Z" fill="#5549FF"/>
</svg>
