<svg width="20" height="21" viewBox="0 0 20 21" fill="none" xmlns="http://www.w3.org/2000/svg">
<path d="M11.1094 10.2918C11.1094 10.5143 11.0434 10.7318 10.9198 10.9168C10.7962 11.1018 10.6205 11.246 10.4149 11.3311C10.2093 11.4163 9.98313 11.4386 9.7649 11.3952C9.54667 11.3518 9.34621 11.2446 9.18888 11.0873C9.03155 10.9299 8.9244 10.7295 8.88099 10.5113C8.83758 10.293 8.85986 10.0668 8.94501 9.86126C9.03016 9.65569 9.17435 9.47999 9.35936 9.35637C9.54436 9.23276 9.76187 9.16678 9.98438 9.16678C10.2827 9.16678 10.5689 9.2853 10.7799 9.49628C10.9908 9.70726 11.1094 9.99341 11.1094 10.2918ZM5.85937 9.16678C5.63687 9.16678 5.41936 9.23276 5.23436 9.35637C5.04935 9.47999 4.90516 9.65569 4.82001 9.86126C4.73486 10.0668 4.71258 10.293 4.75599 10.5113C4.7994 10.7295 4.90655 10.9299 5.06388 11.0873C5.22121 11.2446 5.42167 11.3518 5.6399 11.3952C5.85813 11.4386 6.08433 11.4163 6.28989 11.3311C6.49546 11.246 6.67116 11.1018 6.79478 10.9168C6.9184 10.7318 6.98438 10.5143 6.98438 10.2918C6.98438 9.99341 6.86585 9.70726 6.65487 9.49628C6.44389 9.2853 6.15774 9.16678 5.85937 9.16678ZM14.1094 9.16678C13.8869 9.16678 13.6694 9.23276 13.4844 9.35637C13.2994 9.47999 13.1552 9.65569 13.07 9.86126C12.9849 10.0668 12.9626 10.293 13.006 10.5113C13.0494 10.7295 13.1565 10.9299 13.3139 11.0873C13.4712 11.2446 13.6717 11.3518 13.8899 11.3952C14.1081 11.4386 14.3343 11.4163 14.5399 11.3311C14.7455 11.246 14.9212 11.1018 15.0448 10.9168C15.1684 10.7318 15.2344 10.5143 15.2344 10.2918C15.2344 9.99341 15.1158 9.70726 14.9049 9.49628C14.6939 9.2853 14.4077 9.16678 14.1094 9.16678ZM19.7344 10.2918C19.7347 11.9751 19.2993 13.6298 18.4704 15.0949C17.6415 16.56 16.4475 17.7855 15.0044 18.6522C13.5614 19.5189 11.9185 19.9973 10.2358 20.0407C8.553 20.0841 6.88768 19.6911 5.40188 18.8999L2.20969 19.964C1.94539 20.0521 1.66177 20.0649 1.39062 20.0009C1.11946 19.9369 0.871488 19.7987 0.674485 19.6017C0.477483 19.4047 0.339239 19.1567 0.275248 18.8855C0.211257 18.6144 0.224048 18.3308 0.312187 18.0665L1.37625 14.8743C0.680764 13.5667 0.29231 12.1178 0.240373 10.6377C0.188435 9.15755 0.47438 7.68503 1.0765 6.3319C1.67862 4.97877 2.5811 3.7806 3.71542 2.82833C4.84975 1.87606 6.18611 1.19472 7.62306 0.836035C9.06002 0.477346 10.5598 0.450733 12.0086 0.758216C13.4574 1.0657 14.8171 1.6992 15.9845 2.61062C17.1518 3.52205 18.0963 4.68745 18.746 6.01837C19.3958 7.34928 19.7338 8.81073 19.7344 10.2918ZM18.2344 10.2918C18.234 9.02627 17.9425 7.7778 17.3825 6.64297C16.8224 5.50814 16.0088 4.51737 15.0045 3.74731C14.0003 2.97724 12.8323 2.44853 11.591 2.20208C10.3498 1.95562 9.06842 1.99803 7.84616 2.32602C6.62389 2.65402 5.49346 3.2588 4.54233 4.09358C3.5912 4.92837 2.84486 5.97077 2.36106 7.14015C1.87725 8.30953 1.66895 9.57453 1.75228 10.8373C1.8356 12.1001 2.2083 13.3267 2.84156 14.4224C2.89471 14.5144 2.92771 14.6166 2.93838 14.7223C2.94905 14.828 2.93714 14.9348 2.90344 15.0355L1.73437 18.5418L5.24062 17.3727C5.31699 17.3467 5.39713 17.3334 5.47781 17.3333C5.60953 17.3336 5.73887 17.3685 5.85281 17.4346C7.107 18.1602 8.53018 18.5428 9.97916 18.5437C11.4281 18.5446 12.8518 18.1639 14.1069 17.4398C15.362 16.7157 16.4043 15.6739 17.1288 14.4191C17.8534 13.1643 18.2347 11.7408 18.2344 10.2918Z" fill="#6B7A99"/>
</svg>
