<svg width="154" height="28" viewBox="0 0 154 28" fill="none" xmlns="http://www.w3.org/2000/svg">
<path d="M33.2667 22.9818C33.2667 23.5148 33.0002 23.7813 32.4672 23.7813L18.4008 23.7813L4.33446 23.7813C3.80145 23.7813 3.53495 23.5148 3.53495 22.9818L3.53495 14.2122L3.53495 5.44255C3.53495 4.90955 3.80145 4.64305 4.33446 4.64305L18.4008 4.64304L32.4672 4.64304C33.0002 4.64304 33.2667 4.90955 33.2667 5.44255L33.2667 14.2122L33.2667 22.9818ZM36.4647 8.79049C36.4647 7.89104 36.2815 7.07488 35.915 6.342L33.9662 2.94409C33.1001 1.51164 31.7842 0.795413 30.0187 0.795413L6.63304 0.795414C2.43562 0.795414 0.336913 2.86081 0.336913 6.9916L0.336914 19.6338C0.336914 20.5333 0.520135 21.3494 0.886578 22.0823L2.83538 25.4802C3.70151 26.9127 5.01737 27.6289 6.78295 27.6289L30.1686 27.6289C34.366 27.6289 36.4647 25.5635 36.4647 21.4327L36.4647 8.79049Z" fill="#5549FF"/>
<path d="M35.9151 6.342C36.2815 7.07488 36.4647 7.89104 36.4647 8.79049L36.4647 21.4327C36.4647 25.5635 34.366 27.6289 30.1686 27.6289L6.26461 27.6289C5.57972 27.5809 3.98861 27.1607 3.10327 25.8639L31.1791 25.8639C32.378 25.7264 34.7759 24.6476 34.7759 21.4327L34.7759 4.35519L35.9151 6.342Z" fill="url(#paint0_radial_1338_2318)"/>
<path d="M32.4664 24.0312C32.7714 24.0312 33.0461 23.9548 33.2428 23.7581C33.4395 23.5615 33.5159 23.2868 33.5159 22.9817L33.5159 14.2121L33.5159 5.44253C33.5159 5.13749 33.4395 4.86279 33.2428 4.66612C33.0461 4.46945 32.7714 4.39302 32.4664 4.39302L18.4 4.39302L4.33369 4.39302C4.02865 4.39302 3.75395 4.46945 3.55728 4.66612C3.36061 4.86279 3.28418 5.13749 3.28418 5.44253L3.28418 14.2121L3.28418 22.9817C3.28418 23.2868 3.36061 23.5615 3.55728 23.7582C3.75395 23.9548 4.02865 24.0312 4.33369 24.0312L18.4 24.0312L32.4664 24.0312Z" stroke="#5549FF" stroke-width="0.5"/>
<path d="M4.948 23.82H4.72275C4.59179 23.82 4.46348 23.8087 4.33871 23.7871C4.21616 23.774 4.09517 23.7563 3.99247 23.7326C3.91415 23.7144 3.84858 23.673 3.79409 23.6181C3.02581 23.2658 2.49219 22.4899 2.49219 21.5894V4.75435C2.49219 4.01521 3.09138 3.41602 3.83052 3.41602H31.9136C32.6528 3.41602 33.252 4.01521 33.252 4.75435V5.26582C33.2275 5.06746 33.0743 4.67073 32.6569 4.67073H4.08676C3.91101 4.70361 3.5595 4.8551 3.5595 5.19799V23.0459C3.57312 23.1939 3.63831 23.4611 3.79409 23.6181C3.9651 23.6965 4.14775 23.7539 4.33871 23.7871C4.57684 23.8124 4.82086 23.82 4.948 23.82Z" fill="url(#paint1_radial_1338_2318)"/>
<path d="M48.4648 22.5263V4.71147L52.5474 0.628906H63.6817H67.6158V1.94501L64.7951 3.15267H62.4198H53.2855C52.181 3.15267 51.2855 4.0481 51.2855 5.15267V5.63932V22.0851C51.2855 23.1896 52.181 24.0851 53.2855 24.0851H53.8093H62.4198H64.7951H67.6158V24.9016L63.6817 26.6088H52.5474L48.4648 22.5263Z" fill="#4417F6"/>
<path d="M73.2669 26.6088C71.0122 26.6088 69.1843 24.781 69.1843 22.5263V4.71147L73.2669 0.628906H84.995C87.2497 0.628906 89.0775 2.45673 89.0775 4.71147V22.5263L84.995 26.6088H73.2669ZM83.7331 24.0851H85.8254L86.2569 5.63932V3.15267H72.005V5.63932V24.0851H74.5288H83.7331Z" fill="#4417F6"/>
<path d="M92.4319 0.628906H94.8022L95.2526 1.51574L107.278 0.628906L110.692 4.04341V12.3941L107.24 15.8457H95.2526V26.6088H92.4319V0.628906ZM106.053 13.3962C107.078 13.3962 107.909 12.5654 107.909 11.5405V4.89704C107.909 3.89266 107.094 3.07844 106.09 3.07844H95.2526V13.3962H106.053Z" fill="#4417F6"/>
<path d="M121.184 15.7715L112.165 0.628906H115.208L122.538 13.1786C122.55 13.1984 122.571 13.2106 122.594 13.2106C122.617 13.2106 122.638 13.1984 122.65 13.1786L129.98 0.628906H133.023L124.004 15.7715V26.6088H121.184V15.7715Z" fill="#4417F6"/>
<path d="M142.555 1.70027L134.687 3.11556V0.628906H153.244V3.11556L145.375 1.70027V26.6088H142.555V1.70027Z" fill="#4417F6"/>
<defs>
<radialGradient id="paint0_radial_1338_2318" cx="0" cy="0" r="1" gradientUnits="userSpaceOnUse" gradientTransform="translate(32.9256 25.6055) rotate(174.369) scale(27.2686 23.0123)">
<stop stop-color="#2C1975"/>
<stop offset="1" stop-color="#4518F7" stop-opacity="0"/>
</radialGradient>
<radialGradient id="paint1_radial_1338_2318" cx="0" cy="0" r="1" gradientUnits="userSpaceOnUse" gradientTransform="translate(5.31144 5.92061) rotate(79.9354) scale(22.4177 33.2613)">
<stop stop-color="#1F009B"/>
<stop offset="1" stop-color="#4518F7" stop-opacity="0.13"/>
</radialGradient>
</defs>
</svg>
