<svg width="23" height="20" viewBox="0 0 23 20" fill="none" xmlns="http://www.w3.org/2000/svg">
<path d="M18.0988 5.71106C18.9951 5.71106 19.8548 6.06712 20.4886 6.70092C21.1223 7.33471 21.4784 8.19432 21.4784 9.09064C21.4784 9.98696 21.1223 10.8466 20.4886 11.4804C19.8548 12.1142 18.9951 12.4702 18.0988 12.4702M9.08661 5.71106V18.1029C9.08661 18.4016 8.96792 18.6882 8.75666 18.8994C8.5454 19.1107 8.25886 19.2294 7.96009 19.2294H6.83356C6.53478 19.2294 6.24825 19.1107 6.03698 18.8994C5.82572 18.6882 5.70703 18.4016 5.70703 18.1029V12.4702" stroke="#6B7A99" stroke-width="1.5" stroke-linecap="round" stroke-linejoin="round"/>
<path d="M11.338 5.71134L16.4344 1.46433C16.5825 1.34099 16.7626 1.2624 16.9538 1.23779C17.1449 1.21318 17.3391 1.24356 17.5136 1.32538C17.6881 1.40719 17.8357 1.53704 17.9391 1.69972C18.0424 1.8624 18.0972 2.05116 18.0971 2.24389V15.938C18.0972 16.1307 18.0424 16.3194 17.9391 16.4821C17.8357 16.6448 17.6881 16.7747 17.5136 16.8565C17.3391 16.9383 17.1449 16.9687 16.9538 16.944C16.7626 16.9194 16.5825 16.8409 16.4344 16.7175L11.338 12.4705H2.32575C2.02697 12.4705 1.74044 12.3518 1.52917 12.1405C1.31791 11.9293 1.19922 11.6427 1.19922 11.344V6.83787C1.19922 6.53909 1.31791 6.25256 1.52917 6.04129C1.74044 5.83003 2.02697 5.71134 2.32575 5.71134H11.338Z" stroke="#6B7A99" stroke-width="1.5" stroke-linecap="round" stroke-linejoin="round"/>
</svg>
