<svg width="20" height="22" viewBox="0 0 20 22" fill="none" xmlns="http://www.w3.org/2000/svg">
<path d="M19.9921 19.9868C19.9921 20.2803 19.8755 20.5618 19.6679 20.7694C19.4604 20.9769 19.1789 21.0935 18.8853 21.0935H1.17708C0.883546 21.0935 0.602035 20.9769 0.394477 20.7694C0.186918 20.5618 0.0703128 20.2803 0.0703128 19.9868V8.35467C0.0701958 8.18601 0.108626 8.01956 0.182667 7.86802C0.256708 7.71649 0.364402 7.58388 0.497524 7.48032L9.35164 0.594028C9.54593 0.442895 9.78505 0.36084 10.0312 0.36084C10.2773 0.36084 10.5165 0.442895 10.7108 0.594028L19.5649 7.48032C19.698 7.58388 19.8057 7.71649 19.8797 7.86802C19.9538 8.01956 19.9922 8.18601 19.9921 8.35467V19.9868Z" fill="white"/>
</svg>
