<svg width="24" height="24" viewBox="0 0 24 24" fill="none" xmlns="http://www.w3.org/2000/svg">
<path d="M22.3667 8.00837C21.7908 6.63383 20.953 5.38446 19.8999 4.32991C18.85 3.27353 17.6028 2.43363 16.2291 1.85793C14.822 1.2653 13.31 0.961513 11.7831 0.964623H11.7318C10.1788 0.972324 8.67712 1.28036 7.26273 1.88616C5.90088 2.46777 4.6654 3.30916 3.62534 4.36328C2.58246 5.41547 1.75421 6.66046 1.18672 8.02891C0.597643 9.45194 0.299154 10.9784 0.308821 12.5185C0.316522 14.3 0.742638 16.0686 1.5384 17.6499V21.5517C1.5384 22.2037 2.06719 22.7325 2.71663 22.7325H6.61329C8.20191 23.5341 9.95498 23.9559 11.7344 23.9646H11.7883C13.3233 23.9646 14.8096 23.6669 16.2112 23.0842C17.5778 22.5153 18.8204 21.6852 19.8691 20.6404C20.9267 19.5905 21.7584 18.3635 22.3411 16.9953C22.9443 15.5783 23.2523 14.0715 23.26 12.516C23.2652 10.9527 22.9623 9.4356 22.3667 8.00837ZM6.65949 13.6968C5.98181 13.6968 5.42991 13.1449 5.42991 12.4646C5.42991 11.7844 5.98181 11.2325 6.65949 11.2325C7.33717 11.2325 7.88907 11.7844 7.88907 12.4646C7.88907 13.1449 7.33974 13.6968 6.65949 13.6968ZM11.7831 13.6968C11.1055 13.6968 10.5536 13.1449 10.5536 12.4646C10.5536 11.7844 11.1055 11.2325 11.7831 11.2325C12.4608 11.2325 13.0127 11.7844 13.0127 12.4646C13.0127 13.1449 12.4608 13.6968 11.7831 13.6968ZM16.9068 13.6968C16.2291 13.6968 15.6772 13.1449 15.6772 12.4646C15.6772 11.7844 16.2291 11.2325 16.9068 11.2325C17.5845 11.2325 18.1364 11.7844 18.1364 12.4646C18.1364 13.1449 17.5845 13.6968 16.9068 13.6968Z" fill="white"/>
</svg>
