<svg width="22" height="25" viewBox="0 0 32 27" fill="#FFCC4D" xmlns="http://www.w3.org/2000/svg">
<path d="M14.6767 1.17596C15.3696 0.138411 16.8945 0.138412 17.5874 1.17596L21.3879 6.86722C21.7236 7.36993 22.2474 7.71642 22.8414 7.82861L29.757 9.13479C31.1482 9.39756 31.6677 11.1177 30.6546 12.1067L26.2557 16.4007C25.757 16.8875 25.512 17.578 25.5924 18.2702L26.2849 24.2361C26.4366 25.5428 25.1465 26.5433 23.9187 26.0714L16.9393 23.3888C16.4197 23.1891 15.8444 23.1891 15.3248 23.3888L8.34538 26.0714C7.11757 26.5433 5.82753 25.5428 5.97921 24.2361L6.67174 18.2702C6.7521 17.578 6.50714 16.8875 6.00843 16.4007L1.60951 12.1067C0.596357 11.1177 1.1159 9.39757 2.50714 9.13479L9.42266 7.82861C10.0167 7.71642 10.5405 7.36993 10.8762 6.86721L14.6767 1.17596Z" fill="#FFCC4D" stroke="#E3E3E3" stroke-width="0.5"/>
</svg>
