<svg width="422" height="81" viewBox="0 0 422 81" fill="none" xmlns="http://www.w3.org/2000/svg">
<g filter="url(#filter0_d_451_986)">
<mask id="path-1-inside-1_451_986" fill="white">
<path fill-rule="evenodd" clip-rule="evenodd" d="M411.445 4.74072C414.759 4.74072 417.445 7.42701 417.445 10.7407L417.445 61.6661C417.445 64.9798 414.759 67.6661 411.445 67.6661L120.895 67.6661L115.987 76.1663C115.602 76.833 114.64 76.833 114.255 76.1663L109.348 67.6661L10.4453 67.6662C7.1316 67.6662 4.44532 64.9799 4.44532 61.6662L4.44531 10.7408C4.44531 7.42705 7.13162 4.74076 10.4453 4.74076L411.445 4.74072Z"/>
</mask>
<path fill-rule="evenodd" clip-rule="evenodd" d="M411.445 4.74072C414.759 4.74072 417.445 7.42701 417.445 10.7407L417.445 61.6661C417.445 64.9798 414.759 67.6661 411.445 67.6661L120.895 67.6661L115.987 76.1663C115.602 76.833 114.64 76.833 114.255 76.1663L109.348 67.6661L10.4453 67.6662C7.1316 67.6662 4.44532 64.9799 4.44532 61.6662L4.44531 10.7408C4.44531 7.42705 7.13162 4.74076 10.4453 4.74076L411.445 4.74072Z" fill="white"/>
<path d="M417.445 10.7407L416.445 10.7407L417.445 10.7407ZM417.445 61.6661L418.445 61.6661L417.445 61.6661ZM411.445 67.6661L411.445 66.6661L411.445 67.6661ZM120.895 67.6661L120.029 67.1661L120.317 66.6661L120.895 66.6661L120.895 67.6661ZM115.987 76.1663L115.121 75.6663L115.121 75.6663L115.987 76.1663ZM114.255 76.1663L113.389 76.6663L113.389 76.6663L114.255 76.1663ZM109.348 67.6661L109.348 66.6661L109.925 66.6661L110.214 67.1661L109.348 67.6661ZM416.445 10.7407C416.445 7.9793 414.207 5.74072 411.445 5.74072L411.445 3.74072C415.311 3.74072 418.445 6.87473 418.445 10.7407L416.445 10.7407ZM416.445 61.6661L416.445 10.7407L418.445 10.7407L418.445 61.6661L416.445 61.6661ZM411.445 66.6661C414.207 66.6661 416.445 64.4275 416.445 61.6661L418.445 61.6661C418.445 65.5321 415.311 68.6661 411.445 68.6661L411.445 66.6661ZM120.895 66.6661L411.445 66.6661L411.445 68.6661L120.895 68.6661L120.895 66.6661ZM115.121 75.6663L120.029 67.1661L121.761 68.1661L116.853 76.6663L115.121 75.6663ZM115.121 75.6663L115.121 75.6663L116.853 76.6663C116.083 77.9997 114.159 77.9996 113.389 76.6663L115.121 75.6663ZM110.214 67.1661L115.121 75.6663L113.389 76.6663L108.481 68.1661L110.214 67.1661ZM10.4453 66.6662L109.348 66.6661L109.348 68.6661L10.4453 68.6662L10.4453 66.6662ZM5.44532 61.6662C5.44532 64.4276 7.68387 66.6662 10.4453 66.6662L10.4453 68.6662C6.57932 68.6662 3.44532 65.5321 3.44532 61.6662L5.44532 61.6662ZM5.44531 10.7408L5.44532 61.6662L3.44532 61.6662L3.44531 10.7408L5.44531 10.7408ZM10.4453 5.74076C7.6839 5.74076 5.44531 7.97934 5.44531 10.7408L3.44531 10.7408C3.44531 6.87476 6.57935 3.74076 10.4453 3.74076L10.4453 5.74076ZM411.445 5.74072L10.4453 5.74076L10.4453 3.74076L411.445 3.74072L411.445 5.74072Z" fill="#DFDFDF" mask="url(#path-1-inside-1_451_986)"/>
</g>
<defs>
<filter id="filter0_d_451_986" x="0.445312" y="0.740723" width="421" height="79.9258" filterUnits="userSpaceOnUse" color-interpolation-filters="sRGB">
<feFlood flood-opacity="0" result="BackgroundImageFix"/>
<feColorMatrix in="SourceAlpha" type="matrix" values="0 0 0 0 0 0 0 0 0 0 0 0 0 0 0 0 0 0 127 0" result="hardAlpha"/>
<feOffset/>
<feGaussianBlur stdDeviation="2"/>
<feComposite in2="hardAlpha" operator="out"/>
<feColorMatrix type="matrix" values="0 0 0 0 0 0 0 0 0 0 0 0 0 0 0 0 0 0 0.15 0"/>
<feBlend mode="normal" in2="BackgroundImageFix" result="effect1_dropShadow_451_986"/>
<feBlend mode="normal" in="SourceGraphic" in2="effect1_dropShadow_451_986" result="shape"/>
</filter>
</defs>
</svg>
