<svg width="18" height="20" viewBox="0 0 18 20" fill="none" xmlns="http://www.w3.org/2000/svg">
<path d="M4.5 11.0012V11C4.5 10.8428 4.54777 10.7343 4.64156 10.6406C4.73528 10.5468 4.84308 10.4996 4.99882 10.5H5C5.15715 10.5 5.26567 10.5478 5.35945 10.6416C5.45317 10.7353 5.50037 10.8431 5.5 10.9988V11C5.5 11.1572 5.45223 11.2657 5.35845 11.3594C5.26473 11.4532 5.15692 11.5004 5.00118 11.5H5C4.84285 11.5 4.73434 11.4522 4.64056 11.3584C4.54683 11.2647 4.49963 11.1569 4.5 11.0012ZM8.99882 10.5H9C9.15715 10.5 9.26567 10.5478 9.35945 10.6416C9.45317 10.7353 9.50037 10.8431 9.5 10.9988V11C9.5 11.1572 9.45223 11.2657 9.35845 11.3594C9.26473 11.4532 9.15692 11.5004 9.00118 11.5H9C8.84285 11.5 8.73434 11.4522 8.64056 11.3584C8.54683 11.2647 8.49963 11.1569 8.5 11.0012V11C8.5 10.8428 8.54777 10.7343 8.64156 10.6406C8.73528 10.5468 8.84308 10.4996 8.99882 10.5ZM12.9988 10.5H13C13.1572 10.5 13.2657 10.5478 13.3594 10.6416C13.4532 10.7353 13.5004 10.8431 13.5 10.9988V11C13.5 11.1572 13.4522 11.2657 13.3584 11.3594C13.2647 11.4532 13.1569 11.5004 13.0012 11.5H13C12.8429 11.5 12.7343 11.4522 12.6406 11.3584C12.5468 11.2647 12.4996 11.1569 12.5 11.0012V11C12.5 10.8428 12.5478 10.7343 12.6416 10.6406C12.7353 10.5468 12.8431 10.4996 12.9988 10.5ZM0.500002 18.0006V18V4C0.500002 3.58379 0.642485 3.23962 0.941555 2.94055C1.24061 2.6415 1.58424 2.4995 1.99939 2.5H2H3H3.5V2V0.5H4.5V2V2.5H5H13H13.5V2V0.5H14.5V2V2.5H15H16C16.4162 2.5 16.7604 2.64248 17.0594 2.94155C17.3585 3.24061 17.5005 3.58424 17.5 3.99939V4V18C17.5 18.4162 17.3575 18.7604 17.0584 19.0594C16.7594 19.3585 16.4158 19.5005 16.0006 19.5H16H2C1.58379 19.5 1.23962 19.3575 0.940555 19.0584C0.641503 18.7594 0.499498 18.4158 0.500002 18.0006ZM18 4V18C18 18.55 17.804 19.021 17.412 19.413C17.02 19.805 16.5493 20.0007 16 20H2C1.45 20 0.979002 19.804 0.587002 19.412C0.195002 19.02 -0.000664969 18.5493 0 18V4C0 3.45 0.196002 2.979 0.588002 2.587C0.980002 2.195 1.45067 1.99933 2 2L18 4ZM1.5 18V18.5H2H16H16.5V18V8V7.5H16H2H1.5V8V18Z" fill="black" stroke="black"/>
</svg>
