<svg width="100%" height="100%" viewBox="0 0 21 26" fill="none" xmlns="http://www.w3.org/2000/svg">
<path d="M5.70764 15.8428C5.38421 15.8428 5.11291 15.7229 4.89373 15.4832C4.67456 15.2435 4.56535 14.9472 4.56612 14.5943C4.56612 14.2406 4.6757 13.9439 4.89488 13.7042C5.11405 13.4645 5.38497 13.3451 5.70764 13.3459C6.03108 13.3459 6.30238 13.4657 6.52155 13.7054C6.74073 13.9451 6.84993 14.2414 6.84917 14.5943C6.84917 14.9481 6.73958 15.2448 6.52041 15.4845C6.30124 15.7242 6.03032 15.8436 5.70764 15.8428ZM10.2738 15.8428C9.95032 15.8428 9.67902 15.7229 9.45985 15.4832C9.24067 15.2435 9.13147 14.9472 9.13223 14.5943C9.13223 14.2406 9.24181 13.9439 9.46099 13.7042C9.68016 13.4645 9.95108 13.3451 10.2738 13.3459C10.5972 13.3459 10.8685 13.4657 11.0877 13.7054C11.3068 13.9451 11.416 14.2414 11.4153 14.5943C11.4153 14.9481 11.3057 15.2448 11.0865 15.4845C10.8674 15.7242 10.5964 15.8436 10.2738 15.8428ZM14.8399 15.8428C14.5164 15.8428 14.2451 15.7229 14.026 15.4832C13.8068 15.2435 13.6976 14.9472 13.6983 14.5943C13.6983 14.2406 13.8079 13.9439 14.0271 13.7042C14.2463 13.4645 14.5172 13.3451 14.8399 13.3459C15.1633 13.3459 15.4346 13.4657 15.6538 13.7054C15.873 13.9451 15.9822 14.2414 15.9814 14.5943C15.9814 14.9481 15.8718 15.2448 15.6526 15.4845C15.4335 15.7242 15.1625 15.8436 14.8399 15.8428ZM2.28306 25.8304C1.65522 25.8304 1.11756 25.5857 0.670079 25.0964C0.2226 24.607 -0.000759081 24.0194 1.93808e-06 23.3335V5.85515C1.93808e-06 5.1685 0.223742 4.58048 0.671221 4.09108C1.1187 3.60169 1.65598 3.35741 2.28306 3.35824H3.42459V0.861328H5.70764V3.35824H14.8399V0.861328H17.1229V3.35824H18.2645C18.8923 3.35824 19.43 3.60294 19.8774 4.09233C20.3249 4.58173 20.5483 5.16933 20.5475 5.85515V23.3335C20.5475 24.0202 20.3238 24.6082 19.8763 25.0976C19.4288 25.587 18.8915 25.8313 18.2645 25.8304H2.28306ZM2.28306 23.3335H18.2645V10.849H2.28306V23.3335Z" fill="black"/>
</svg>
