<svg width="23" height="25" viewBox="0 0 23 25" fill="none" xmlns="http://www.w3.org/2000/svg">
<ellipse cx="11.1875" cy="12.9031" rx="11" ry="10.9031" fill="#737373"/>
<path d="M11.5568 18.2045C10.6364 18.2045 9.84375 17.9872 9.17898 17.5526C8.5142 17.1179 8.00284 16.5192 7.64489 15.7564C7.28693 14.9936 7.10795 14.1222 7.10795 13.142C7.10795 12.1449 7.29119 11.2649 7.65767 10.5021C8.02841 9.73509 8.54403 9.13636 9.20455 8.70597C9.86932 8.27131 10.6449 8.05398 11.5312 8.05398C12.2216 8.05398 12.8438 8.18182 13.3977 8.4375C13.9517 8.69318 14.4055 9.05114 14.7592 9.51136C15.1129 9.97159 15.3324 10.5085 15.4176 11.1222H13.9091C13.794 10.6747 13.5384 10.2784 13.142 9.93324C12.75 9.58381 12.2216 9.40909 11.5568 9.40909C10.9688 9.40909 10.4531 9.5625 10.0099 9.86932C9.57102 10.1719 9.22798 10.6001 8.98082 11.1541C8.73793 11.7038 8.61648 12.3494 8.61648 13.0909C8.61648 13.8494 8.7358 14.5099 8.97443 15.0724C9.21733 15.6349 9.55824 16.0717 9.99716 16.3828C10.4403 16.6939 10.9602 16.8494 11.5568 16.8494C11.9489 16.8494 12.3047 16.7812 12.6243 16.6449C12.9439 16.5085 13.2145 16.3125 13.4361 16.0568C13.6577 15.8011 13.8153 15.4943 13.9091 15.1364H15.4176C15.3324 15.7159 15.1214 16.2379 14.7848 16.7024C14.4524 17.1626 14.0114 17.5291 13.4616 17.8018C12.9162 18.0703 12.2813 18.2045 11.5568 18.2045Z" fill="white"/>
</svg>
