<svg width="25" height="25" viewBox="0 0 25 25" fill="none" xmlns="http://www.w3.org/2000/svg">
<g clip-path="url(#clip0_257_1168)">
<path d="M17.4209 18.2397V12.2397C17.4209 10.9136 16.8941 9.64183 15.9564 8.70415C15.0188 7.76647 13.747 7.23969 12.4209 7.23969C11.0948 7.23969 9.82305 7.76647 8.88536 8.70415C7.94768 9.64183 7.4209 10.9136 7.4209 12.2397V18.2397M17.4209 18.2397H7.4209M17.4209 18.2397C17.9513 18.2397 18.46 18.4504 18.8351 18.8255C19.2102 19.2005 19.4209 19.7093 19.4209 20.2397V22.2397H5.4209V20.2397C5.4209 19.7093 5.63161 19.2005 6.00668 18.8255C6.38176 18.4504 6.89047 18.2397 7.4209 18.2397M21.4209 12.2397H22.4209M18.9209 4.73969L18.4209 5.23969M2.4209 12.2397H3.4209M12.4209 2.23969V3.23969M5.3499 5.16868L6.0569 5.87569M12.4209 12.2397V18.2397" stroke="black" stroke-width="2" stroke-linecap="round" stroke-linejoin="round"/>
</g>
<defs>
<clipPath id="clip0_257_1168">
<rect width="24" height="24" fill="white" transform="translate(0.420898 0.239685)"/>
</clipPath>
</defs>
</svg>
