<svg width="16" height="18" viewBox="0 0 16 18" fill="none" xmlns="http://www.w3.org/2000/svg">
<ellipse cx="7.59814" cy="8.72736" rx="7.5" ry="7.4339" fill="#737373"/>
<path d="M8.53564 3.83891L8.44332 10.6344H7.37229L7.27996 3.83891H8.53564ZM7.9078 13.3673C7.68006 13.3673 7.48463 13.2858 7.32151 13.1226C7.1584 12.9595 7.07684 12.7641 7.07684 12.5364C7.07684 12.3086 7.1584 12.1132 7.32151 11.9501C7.48463 11.7869 7.68006 11.7054 7.9078 11.7054C8.13555 11.7054 8.33098 11.7869 8.4941 11.9501C8.65721 12.1132 8.73877 12.3086 8.73877 12.5364C8.73877 12.6872 8.7003 12.8257 8.62336 12.9518C8.54949 13.078 8.44947 13.1796 8.32329 13.2565C8.20018 13.3304 8.06169 13.3673 7.9078 13.3673Z" fill="white"/>
</svg>
