<svg width="27" height="27" viewBox="0 0 27 27" fill="none" xmlns="http://www.w3.org/2000/svg">
<circle cx="13.1934" cy="13.4453" r="13" fill="#5549FF"/>
<path d="M6.77624 17.9879C6.36971 18.3617 6.3432 18.9943 6.71703 19.4009C7.09087 19.8074 7.72347 19.8339 8.13001 19.4601L6.77624 17.9879ZM19.9327 8.20886C19.9558 7.65706 19.5273 7.19099 18.9755 7.16787L9.98335 6.79106C9.43155 6.76794 8.96548 7.19652 8.94236 7.74832C8.91924 8.30012 9.34782 8.76619 9.89962 8.78931L17.8926 9.12425L17.5577 17.1172C17.5345 17.669 17.9631 18.1351 18.5149 18.1582C19.0667 18.1813 19.5328 17.7528 19.5559 17.201L19.9327 8.20886ZM8.13001 19.4601L19.6105 8.90308L18.2567 7.4309L6.77624 17.9879L8.13001 19.4601Z" fill="white"/>
</svg>
