<svg width="15" height="17" viewBox="0 0 15 17" fill="none" xmlns="http://www.w3.org/2000/svg">
<ellipse cx="7.5" cy="8.4339" rx="7.5" ry="7.4339" fill="#737373"/>
<path d="M8.4375 3.54545L8.34517 10.3409H7.27415L7.18182 3.54545H8.4375ZM7.80966 13.0739C7.58191 13.0739 7.38648 12.9923 7.22337 12.8292C7.06025 12.6661 6.97869 12.4706 6.97869 12.2429C6.97869 12.0152 7.06025 11.8197 7.22337 11.6566C7.38648 11.4935 7.58191 11.4119 7.80966 11.4119C8.03741 11.4119 8.23284 11.4935 8.39595 11.6566C8.55907 11.8197 8.64062 12.0152 8.64062 12.2429C8.64062 12.3937 8.60215 12.5322 8.52521 12.6584C8.45135 12.7846 8.35133 12.8861 8.22514 12.9631C8.10204 13.0369 7.96354 13.0739 7.80966 13.0739Z" fill="white"/>
</svg>
