<svg width="69" height="77" viewBox="0 0 69 77" fill="none" xmlns="http://www.w3.org/2000/svg">
<path fill-rule="evenodd" clip-rule="evenodd" d="M46.9691 7.35942H35.0138C33.8125 4.04167 30.6664 1.63916 26.9482 1.63916C23.23 1.63916 20.0839 4.04167 18.8826 7.35942H6.92729C3.78115 7.35942 1.20703 9.93354 1.20703 13.0797V53.1215C1.20703 56.2677 3.78115 58.8418 6.92729 58.8418H46.9691C50.1153 58.8418 52.6894 56.2677 52.6894 53.1215V13.0797C52.6894 9.93354 50.1153 7.35942 46.9691 7.35942Z" stroke="#AAAAB6" stroke-width="2"/>
<path fill-rule="evenodd" clip-rule="evenodd" d="M26.9422 7.35938C28.5152 7.35938 29.8023 8.64643 29.8023 10.2195C29.8023 11.7926 28.5152 13.0796 26.9422 13.0796C25.3691 13.0796 24.082 11.7926 24.082 10.2195C24.082 8.64643 25.3691 7.35938 26.9422 7.35938Z" stroke="#AAAAB6" stroke-width="2"/>
<rect x="11.1602" y="21.3315" width="32.1309" height="1.80383" rx="0.901917" fill="#AAAAB6"/>
<rect x="11.1602" y="31.1353" width="32.1309" height="1.80383" rx="0.901917" fill="#AAAAB6"/>
<rect x="11.1602" y="40.9395" width="16.6855" height="1.80383" rx="0.901917" fill="#AAAAB6"/>
<circle cx="48.7064" cy="56.1195" r="19.89" fill="white"/>
<path d="M46.25 59.7905V59.9253H48.541V59.7905C48.5747 57.96 49.1025 57.1514 50.4502 56.3315C51.8765 55.4556 52.7412 54.2539 52.7412 52.4458C52.7412 49.8853 50.7871 48.1333 47.8672 48.1333C45.1943 48.1333 43.0381 49.6943 42.9482 52.5581H45.374C45.4751 50.896 46.6543 50.1548 47.8672 50.1548C49.2148 50.1548 50.293 51.042 50.293 52.4458C50.293 53.625 49.5742 54.4561 48.6309 55.0288C47.1484 55.9497 46.2837 56.8481 46.25 59.7905ZM45.8906 63.1821C45.8794 64.0581 46.6094 64.7656 47.4854 64.7769C48.3501 64.7656 49.0688 64.0581 49.0801 63.1821C49.0688 62.3062 48.3501 61.5874 47.4854 61.5874C46.6094 61.5874 45.8794 62.3062 45.8906 63.1821Z" fill="#AAAAB6"/>
</svg>
