<svg width="73" height="68" viewBox="0 0 73 68" fill="none" xmlns="http://www.w3.org/2000/svg">
<path d="M29.3345 50.0004H8.61097C6.77889 50.0004 5.02186 49.2726 3.72638 47.9771C2.43091 46.6817 1.70313 44.9246 1.70312 43.0925V8.55335C1.70312 6.72127 2.43091 4.96424 3.72638 3.66877C5.02186 2.3733 6.77889 1.64551 8.61097 1.64551H56.9658C58.7979 1.64551 60.555 2.3733 61.8504 3.66877C63.1459 4.96424 63.8737 6.72127 63.8737 8.55335V29.2769" stroke="#AAAAB6" stroke-width="2" stroke-linecap="round" stroke-linejoin="round"/>
<path d="M1.70312 8.55371L32.7884 29.2772L63.8737 8.55371" stroke="#AAAAB6" stroke-width="2" stroke-linecap="round" stroke-linejoin="round"/>
<circle cx="52.679" cy="47.3802" r="19.89" fill="white"/>
<path d="M50.2227 51.0508V51.1855H52.5137V51.0508C52.5474 49.2202 53.0752 48.4116 54.4229 47.5918C55.8491 46.7158 56.7139 45.5142 56.7139 43.7061C56.7139 41.1455 54.7598 39.3936 51.8398 39.3936C49.167 39.3936 47.0107 40.9546 46.9209 43.8184H49.3467C49.4478 42.1562 50.627 41.415 51.8398 41.415C53.1875 41.415 54.2656 42.3022 54.2656 43.7061C54.2656 44.8853 53.5469 45.7163 52.6035 46.2891C51.1211 47.21 50.2563 48.1084 50.2227 51.0508ZM49.8633 54.4424C49.8521 55.3184 50.582 56.0259 51.458 56.0371C52.3228 56.0259 53.0415 55.3184 53.0527 54.4424C53.0415 53.5664 52.3228 52.8477 51.458 52.8477C50.582 52.8477 49.8521 53.5664 49.8633 54.4424Z" fill="#AAAAB6"/>
</svg>
