<svg width="1001" height="490" viewBox="0 0 984 592" fill="none" xmlns="http://www.w3.org/2000/svg">
<rect x="0.5" y="0.523438" width="982.53" height="590.826" rx="29.5" fill="#F9F9FA" stroke="#D9D9D9"/>
<path opacity="0.7" d="M376.031 183.391V180.766H373.523V183.391C373.512 185.734 372.152 188.383 369.234 189.672L370.641 191.664C372.656 190.82 374.039 189.203 374.812 187.316C375.574 188.957 376.887 190.316 378.773 191.031L380.156 189.039C377.379 187.984 376.043 185.676 376.031 183.391ZM373.125 196.703C373.113 199.152 375.926 200.617 380.391 200.617C384.82 200.617 387.645 199.152 387.656 196.703C387.645 194.266 384.82 192.812 380.391 192.812C375.926 192.812 373.113 194.266 373.125 196.703ZM375.727 196.703C375.715 195.461 377.449 194.781 380.391 194.781C383.285 194.781 385.02 195.461 385.031 196.703C385.02 197.957 383.285 198.637 380.391 198.625C377.449 198.637 375.715 197.957 375.727 196.703ZM380.508 191.805H382.945V186.953H385.055V192.461H387.539V179.477H385.055V184.82H382.945V179.875H380.508V191.805ZM397.922 182.5V180.602H395.297V182.617C395.285 185.676 393.527 188.5 390.023 189.648L391.406 191.758C393.973 190.855 395.742 189.039 396.68 186.73C397.582 188.734 399.199 190.281 401.508 191.102L402.914 189.062C399.598 188.02 397.91 185.383 397.922 182.5ZM393.539 196.562C393.516 199.141 396.27 200.617 400.734 200.617C405.223 200.617 407.965 199.141 407.977 196.562C407.965 193.984 405.223 192.473 400.734 192.484C396.27 192.473 393.516 193.984 393.539 196.562ZM396.117 196.562C396.105 195.227 397.793 194.512 400.734 194.5C403.699 194.512 405.375 195.227 405.375 196.562C405.375 197.852 403.699 198.566 400.734 198.578C397.793 198.566 396.105 197.852 396.117 196.562ZM401.086 185.688H405.305V191.922H407.906V179.453H405.305V183.555H401.086V185.688ZM423.234 186.109H415.453V182.875H423.07V180.766H412.828V188.195H416.672V190.691C414.68 190.75 412.746 190.762 411 190.773L411.352 192.859C415.301 192.848 420.164 192.73 424.664 192.109L424.477 190.234C422.824 190.41 421.066 190.527 419.297 190.598V188.195H423.234V186.109ZM414.375 200.219H429.188V198.109H417V194.195H414.375V200.219ZM425.953 195.367H428.578V179.453H425.953V195.367ZM446.766 180.812H438.398V182.945H444.164C444.094 183.555 443.965 184.141 443.777 184.703L437.461 185.055L437.812 187.141L442.852 186.613C441.762 188.195 439.992 189.508 437.344 190.539L438.586 192.461C444.434 190.059 446.754 186.168 446.766 180.812ZM441.164 200.383H455.461V192.742H441.164V200.383ZM443.742 198.273V194.828H452.906V198.273H443.742ZM448.289 191.734H450.75V186.695H452.977V191.898H455.461V179.477H452.977V184.539H450.75V179.875H448.289V191.734ZM476.484 179.453H474V200.641H476.484V179.453ZM457.852 193.492L458.156 195.648C460.84 195.66 465.199 195.578 468.539 194.898L468.375 193C467.777 193.082 467.145 193.152 466.477 193.211V184.07H467.977V181.961H458.273V184.07H459.773V193.492H457.852ZM462.117 193.445V184.07H464.086V193.375C463.43 193.41 462.762 193.434 462.117 193.445ZM467.438 189.602H469.781V199.586H472.266V179.898H469.781V187.281H467.438V189.602ZM496.477 179.477H493.852V194.781H496.477V179.477ZM479.203 186.156C479.203 189.285 481.699 191.477 484.922 191.477C488.145 191.477 490.629 189.285 490.617 186.156C490.629 183.074 488.145 180.871 484.922 180.859C481.699 180.871 479.203 183.074 479.203 186.156ZM481.758 186.156C481.746 184.328 483.105 183.133 484.922 183.133C486.691 183.133 488.062 184.328 488.062 186.156C488.062 188.031 486.691 189.203 484.922 189.203C483.105 189.203 481.746 188.031 481.758 186.156ZM482.461 200.219H497.062V198.109H485.086V193.234H482.461V200.219ZM517.195 179.453H514.57V200.664H517.195V179.453ZM500.25 188.477C500.238 193.082 502.57 195.977 505.781 195.977C508.957 195.977 511.301 193.082 511.312 188.477C511.301 183.906 508.957 181 505.781 181C502.57 181 500.238 183.906 500.25 188.477ZM502.758 188.477C502.758 185.242 503.988 183.344 505.781 183.344C507.562 183.344 508.781 185.242 508.781 188.477C508.781 191.734 507.562 193.621 505.781 193.633C503.988 193.621 502.758 191.734 502.758 188.477ZM530.812 191.852H528.375V200.383H536.016V198.707L537.258 200.547C539.016 199.844 540.223 198.543 540.926 196.984C541.594 198.59 542.789 199.867 544.664 200.547L546 198.602C543.387 197.711 542.238 195.566 542.25 193.375V191.688H539.648V193.375C539.648 195.402 538.512 197.523 536.016 198.578V191.852H533.602V194.125H530.812V191.852ZM526.289 185.242C526.289 188.184 528.645 190.211 531.891 190.211C534.645 190.211 536.812 188.652 537.328 186.297H541.148V190.68H543.75V179.453H541.148V184.141H537.316C536.777 181.844 534.621 180.309 531.891 180.32C528.645 180.309 526.289 182.348 526.289 185.242ZM528.773 185.242C528.773 183.566 530.062 182.465 531.891 182.477C533.672 182.465 534.949 183.566 534.961 185.242C534.949 186.953 533.672 188.078 531.891 188.078C530.062 188.078 528.773 186.953 528.773 185.242ZM530.812 198.391V196.07H533.602V198.391H530.812ZM551.648 192.156H549.07V200.383H563.578V192.156H560.977V194.172H551.648V192.156ZM546.75 190.961H566.062V188.828H546.75V190.961ZM547.734 185.664L548.695 187.727C552.223 187.246 555.035 185.676 556.406 183.52C557.766 185.664 560.566 187.246 564.117 187.727L565.031 185.664C560.648 185.148 557.742 182.77 557.742 180.484V179.688H555.07V180.484C555.059 182.84 552.164 185.113 547.734 185.664ZM551.648 198.32V196.164H560.977V198.32H551.648ZM585.164 179.453H582.586V200.641H585.164V179.453ZM568.711 195.32H570.539C573.832 195.332 577.289 195.086 581.016 194.312L580.688 192.133C577.418 192.789 574.254 193.047 571.289 193.094V181.516H568.711V195.32ZM604.828 179.453H602.227V200.664H604.828V189.625H608.086V187.492H604.828V179.453ZM589.102 195.484H590.859C594.68 195.484 597.527 195.391 600.82 194.828L600.516 192.625C597.609 193.129 594.996 193.293 591.703 193.305V183.578H599.016V181.469H589.102V195.484ZM611.555 198.742C612.527 198.742 613.359 197.922 613.359 196.914C613.359 195.93 612.527 195.121 611.555 195.109C610.547 195.121 609.715 195.93 609.727 196.914C609.715 197.922 610.547 198.742 611.555 198.742ZM213.141 239.336H219.117V237.039H216V219.156H219.117V216.859H213.141V239.336ZM227.062 220.961V217.328H224.531V221.125C224.531 224.734 223.125 228.508 220.008 230.336L221.672 232.234C223.652 231.051 225.012 228.953 225.773 226.457C226.488 228.719 227.754 230.582 229.664 231.648L231.211 229.586C228.281 228.027 227.051 224.535 227.062 220.961ZM231.492 235.609H233.953V225.906H236.133V236.641H238.641V215.453H236.133V223.797H233.953V215.828H231.492V235.609ZM256.219 216.812H247.852V218.945H253.617C253.547 219.555 253.418 220.141 253.23 220.703L246.914 221.055L247.266 223.141L252.305 222.613C251.215 224.195 249.445 225.508 246.797 226.539L248.039 228.461C253.887 226.059 256.207 222.168 256.219 216.812ZM250.617 236.383H264.914V228.742H250.617V236.383ZM253.195 234.273V230.828H262.359V234.273H253.195ZM257.742 227.734H260.203V222.695H262.43V227.898H264.914V215.477H262.43V220.539H260.203V215.875H257.742V227.734ZM285.938 215.453H283.453V236.641H285.938V215.453ZM267.305 229.492L267.609 231.648C270.293 231.66 274.652 231.578 277.992 230.898L277.828 229C277.23 229.082 276.598 229.152 275.93 229.211V220.07H277.43V217.961H267.727V220.07H269.227V229.492H267.305ZM271.57 229.445V220.07H273.539V229.375C272.883 229.41 272.215 229.434 271.57 229.445ZM276.891 225.602H279.234V235.586H281.719V215.898H279.234V223.281H276.891V225.602ZM305.93 215.477H303.305V230.781H305.93V215.477ZM288.656 222.156C288.656 225.285 291.152 227.477 294.375 227.477C297.598 227.477 300.082 225.285 300.07 222.156C300.082 219.074 297.598 216.871 294.375 216.859C291.152 216.871 288.656 219.074 288.656 222.156ZM291.211 222.156C291.199 220.328 292.559 219.133 294.375 219.133C296.145 219.133 297.516 220.328 297.516 222.156C297.516 224.031 296.145 225.203 294.375 225.203C292.559 225.203 291.199 224.031 291.211 222.156ZM291.914 236.219H306.516V234.109H294.539V229.234H291.914V236.219ZM321.328 219.391V216.766H318.82V219.391C318.809 221.734 317.449 224.383 314.531 225.672L315.938 227.664C317.953 226.82 319.336 225.203 320.109 223.316C320.871 224.957 322.184 226.316 324.07 227.031L325.453 225.039C322.676 223.984 321.34 221.676 321.328 219.391ZM318.422 232.703C318.41 235.152 321.223 236.617 325.688 236.617C330.117 236.617 332.941 235.152 332.953 232.703C332.941 230.266 330.117 228.812 325.688 228.812C321.223 228.812 318.41 230.266 318.422 232.703ZM321.023 232.703C321.012 231.461 322.746 230.781 325.688 230.781C328.582 230.781 330.316 231.461 330.328 232.703C330.316 233.957 328.582 234.637 325.688 234.625C322.746 234.637 321.012 233.957 321.023 232.703ZM325.805 227.805H328.242V222.953H330.352V228.461H332.836V215.477H330.352V220.82H328.242V215.875H325.805V227.805ZM343.219 218.5V216.602H340.594V218.617C340.582 221.676 338.824 224.5 335.32 225.648L336.703 227.758C339.27 226.855 341.039 225.039 341.977 222.73C342.879 224.734 344.496 226.281 346.805 227.102L348.211 225.062C344.895 224.02 343.207 221.383 343.219 218.5ZM338.836 232.562C338.812 235.141 341.566 236.617 346.031 236.617C350.52 236.617 353.262 235.141 353.273 232.562C353.262 229.984 350.52 228.473 346.031 228.484C341.566 228.473 338.812 229.984 338.836 232.562ZM341.414 232.562C341.402 231.227 343.09 230.512 346.031 230.5C348.996 230.512 350.672 231.227 350.672 232.562C350.672 233.852 348.996 234.566 346.031 234.578C343.09 234.566 341.402 233.852 341.414 232.562ZM346.383 221.688H350.602V227.922H353.203V215.453H350.602V219.555H346.383V221.688ZM362.016 239.336V216.859H356.039V219.156H359.156V237.039H356.039V239.336H362.016ZM388.641 215.453H386.062V223.047H381.75V217.094H379.195V222.367H374.297V217.094H371.672V231.531H381.75V225.18H386.062V236.664H388.641V215.453ZM374.297 229.445V224.406H379.195V229.445H374.297ZM410.93 227.008H391.57V229.07H410.93V227.008ZM394.008 236.219H408.938V234.109H396.562V230.289H394.008V236.219ZM394.055 225.461H408.773V223.469H396.656V221.781H408.094V219.836H396.656V218.195H408.609V216.18H394.055V225.461ZM421.992 215.781C417.176 215.793 414.352 217.07 414.352 219.414C414.352 221.781 417.176 223.059 421.992 223.07C426.82 223.059 429.621 221.781 429.633 219.414C429.621 217.07 426.82 215.793 421.992 215.781ZM412.359 226.281H431.672V224.195H412.359V226.281ZM414.633 229.633H426.703V231.039H414.656V236.453H429.844V234.461H417.211V232.891H429.258V227.711H414.633V229.633ZM417.094 219.414C417.082 218.324 418.77 217.703 421.992 217.703C425.262 217.703 426.938 218.324 426.938 219.414C426.938 220.586 425.262 221.125 421.992 221.125C418.77 221.125 417.082 220.586 417.094 219.414ZM455.906 220.023H443.836V215.734H441.281V222.109H455.906V220.023ZM438.773 225.648H447.141V227.5H441.07V229.469H453.188V230.945H441.094V236.453H456.469V234.438H443.719V232.773H455.766V227.5H449.695V225.648H458.133V223.539H438.773V225.648ZM477.281 215.453H474.68V223.258H471.047V225.391H474.68V236.664H477.281V215.453ZM460.242 219.414H467.273V222.953H460.312V231.695H462C465.645 231.684 468.48 231.566 471.633 231.016L471.422 228.883C468.574 229.398 466.043 229.504 462.891 229.516V225.062H469.828V217.305H460.242V219.414ZM492.68 220.961V217.328H490.148V221.125C490.148 224.734 488.742 228.508 485.625 230.336L487.289 232.234C489.27 231.051 490.629 228.953 491.391 226.457C492.105 228.719 493.371 230.582 495.281 231.648L496.828 229.586C493.898 228.027 492.668 224.535 492.68 220.961ZM497.109 235.609H499.57V225.906H501.75V236.641H504.258V215.453H501.75V223.797H499.57V215.828H497.109V235.609ZM526.078 232.023H517.641V228.578H524.273V226.445H511.617V223.703H523.781V216.906H508.969V219.016H521.203V221.641H509.016V228.578H515.062V232.023H506.719V234.18H526.078V232.023ZM546.797 225.93H527.438V228.016H535.969V231.906H538.617V228.016H546.797V225.93ZM529.5 220.258C529.488 222.93 532.535 224.582 537.094 224.57C541.676 224.582 544.688 222.93 544.688 220.258C544.688 217.598 541.676 215.922 537.094 215.922C532.535 215.922 529.488 217.598 529.5 220.258ZM529.805 236.219H544.664V234.086H532.43V229.938H529.805V236.219ZM532.312 220.258C532.289 218.805 534.188 217.984 537.094 217.984C540.023 217.984 541.91 218.805 541.898 220.258C541.91 221.664 540.023 222.484 537.094 222.484C534.188 222.484 532.289 221.664 532.312 220.258ZM563.32 216.812H554.953V218.945H560.719C560.648 219.555 560.52 220.141 560.332 220.703L554.016 221.055L554.367 223.141L559.406 222.613C558.316 224.195 556.547 225.508 553.898 226.539L555.141 228.461C560.988 226.059 563.309 222.168 563.32 216.812ZM557.719 236.383H572.016V228.742H557.719V236.383ZM560.297 234.273V230.828H569.461V234.273H560.297ZM564.844 227.734H567.305V222.695H569.531V227.898H572.016V215.477H569.531V220.539H567.305V215.875H564.844V227.734ZM593.039 215.453H590.555V236.641H593.039V215.453ZM574.406 229.492L574.711 231.648C577.395 231.66 581.754 231.578 585.094 230.898L584.93 229C584.332 229.082 583.699 229.152 583.031 229.211V220.07H584.531V217.961H574.828V220.07H576.328V229.492H574.406ZM578.672 229.445V220.07H580.641V229.375C579.984 229.41 579.316 229.434 578.672 229.445ZM583.992 225.602H586.336V235.586H588.82V215.898H586.336V223.281H583.992V225.602ZM613.031 215.477H610.406V230.781H613.031V215.477ZM595.758 222.156C595.758 225.285 598.254 227.477 601.477 227.477C604.699 227.477 607.184 225.285 607.172 222.156C607.184 219.074 604.699 216.871 601.477 216.859C598.254 216.871 595.758 219.074 595.758 222.156ZM598.312 222.156C598.301 220.328 599.66 219.133 601.477 219.133C603.246 219.133 604.617 220.328 604.617 222.156C604.617 224.031 603.246 225.203 601.477 225.203C599.66 225.203 598.301 224.031 598.312 222.156ZM599.016 236.219H613.617V234.109H601.641V229.234H599.016V236.219ZM625.758 215.781C620.941 215.793 618.117 217.07 618.117 219.414C618.117 221.781 620.941 223.059 625.758 223.07C630.586 223.059 633.387 221.781 633.398 219.414C633.387 217.07 630.586 215.793 625.758 215.781ZM616.125 226.281H635.438V224.195H616.125V226.281ZM618.398 229.633H630.469V231.039H618.422V236.453H633.609V234.461H620.977V232.891H633.023V227.711H618.398V229.633ZM620.859 219.414C620.848 218.324 622.535 217.703 625.758 217.703C629.027 217.703 630.703 218.324 630.703 219.414C630.703 220.586 629.027 221.125 625.758 221.125C622.535 221.125 620.848 220.586 620.859 219.414ZM649.172 219.391V216.766H646.664V219.391C646.652 221.734 645.293 224.383 642.375 225.672L643.781 227.664C645.797 226.82 647.18 225.203 647.953 223.316C648.715 224.957 650.027 226.316 651.914 227.031L653.297 225.039C650.52 223.984 649.184 221.676 649.172 219.391ZM646.266 232.703C646.254 235.152 649.066 236.617 653.531 236.617C657.961 236.617 660.785 235.152 660.797 232.703C660.785 230.266 657.961 228.812 653.531 228.812C649.066 228.812 646.254 230.266 646.266 232.703ZM648.867 232.703C648.855 231.461 650.59 230.781 653.531 230.781C656.426 230.781 658.16 231.461 658.172 232.703C658.16 233.957 656.426 234.637 653.531 234.625C650.59 234.637 648.855 233.957 648.867 232.703ZM653.648 227.805H656.086V222.953H658.195V228.461H660.68V215.477H658.195V220.82H656.086V215.875H653.648V227.805ZM671.062 218.5V216.602H668.438V218.617C668.426 221.676 666.668 224.5 663.164 225.648L664.547 227.758C667.113 226.855 668.883 225.039 669.82 222.73C670.723 224.734 672.34 226.281 674.648 227.102L676.055 225.062C672.738 224.02 671.051 221.383 671.062 218.5ZM666.68 232.562C666.656 235.141 669.41 236.617 673.875 236.617C678.363 236.617 681.105 235.141 681.117 232.562C681.105 229.984 678.363 228.473 673.875 228.484C669.41 228.473 666.656 229.984 666.68 232.562ZM669.258 232.562C669.246 231.227 670.934 230.512 673.875 230.5C676.84 230.512 678.516 231.227 678.516 232.562C678.516 233.852 676.84 234.566 673.875 234.578C670.934 234.566 669.246 233.852 669.258 232.562ZM674.227 221.688H678.445V227.922H681.047V215.453H678.445V219.555H674.227V221.688ZM694.383 218.828H690.516V216.062H687.938V218.828H684V220.914H694.383V218.828ZM684.609 226.961C684.586 229.902 686.543 231.953 689.227 231.953C691.922 231.953 693.844 229.902 693.844 226.961C693.844 224.078 691.922 222.027 689.227 222.039C686.543 222.027 684.586 224.078 684.609 226.961ZM686.906 226.961C686.895 225.297 687.855 224.195 689.227 224.195C690.586 224.195 691.547 225.297 691.547 226.961C691.547 228.672 690.586 229.738 689.227 229.727C687.855 229.738 686.895 228.672 686.906 226.961ZM695.273 235.68H697.711V226.281H699.773V236.641H702.258V215.453H699.773V224.172H697.711V215.898H695.273V235.68ZM724.148 231.953H715.711V227.828H721.945V216.859H719.344V220.328H709.523V216.859H706.922V227.828H713.133V231.953H704.789V234.086H724.148V231.953ZM709.523 225.719V222.414H719.344V225.719H709.523ZM732.141 221.008V217.328H729.633V221.125C729.621 224.734 728.262 228.473 725.18 230.336L726.797 232.281C728.789 231.062 730.148 228.906 730.91 226.363C731.613 228.672 732.855 230.641 734.766 231.789L736.195 229.797C733.324 227.992 732.152 224.43 732.141 221.008ZM733.922 224.898H736.945V235.609H739.406V215.828H736.945V222.742H733.922V224.898ZM741.305 236.641H743.812V215.453H741.305V236.641ZM765.633 231.93H761.18V226.516C762.82 225.543 763.816 224.055 763.805 222.203C763.816 218.828 760.488 216.602 755.906 216.602C751.348 216.602 748.043 218.828 748.055 222.203C748.043 224.078 749.062 225.602 750.75 226.574V231.93H746.273V234.062H765.633V231.93ZM750.609 222.203C750.598 220 752.742 218.652 755.906 218.664C759.059 218.652 761.25 220 761.25 222.203C761.25 224.371 759.059 225.754 755.906 225.742C752.742 225.754 750.598 224.371 750.609 222.203ZM753.328 231.93V227.523C754.125 227.688 754.992 227.781 755.906 227.781C756.844 227.781 757.723 227.688 758.531 227.512V231.93H753.328ZM769.594 234.742C770.566 234.742 771.398 233.922 771.398 232.914C771.398 231.93 770.566 231.121 769.594 231.109C768.586 231.121 767.754 231.93 767.766 232.914C767.754 233.922 768.586 234.742 769.594 234.742Z" fill="#555555"/>
<path opacity="0.3" d="M564.245 308.824L564.239 308.812L564.232 308.799L556.217 294.824L556.217 294.824L556.211 294.814C552.552 288.763 546.972 285.736 539.547 285.736L443.366 285.736C434.659 285.736 428.037 287.878 423.594 292.25C419.149 296.624 416.971 303.146 416.971 311.72L416.971 363.715C416.971 367.484 417.739 370.919 419.284 374.009L419.291 374.022L419.298 374.034L427.313 388.009L427.313 388.009L427.319 388.019C430.977 394.07 436.557 397.098 443.982 397.098L540.164 397.098C548.87 397.098 555.493 394.955 559.936 390.583C564.38 386.209 566.559 379.687 566.559 371.114L566.559 319.118C566.559 315.349 565.79 311.915 564.245 308.824ZM552.406 377.485C552.406 378.504 552.151 379.176 551.73 379.597C551.309 380.019 550.636 380.273 549.617 380.273L491.765 380.273L433.912 380.273C432.893 380.273 432.221 380.019 431.799 379.597C431.378 379.176 431.124 378.504 431.124 377.485L431.124 341.417L431.124 305.349C431.124 304.33 431.378 303.657 431.799 303.236C432.221 302.815 432.893 302.56 433.912 302.56L491.765 302.56L549.617 302.56C550.636 302.56 551.309 302.815 551.73 303.236C552.151 303.657 552.406 304.33 552.406 305.349L552.406 341.417L552.406 377.485Z" stroke="#5549FF"/>
</svg>
