<svg width="152" height="113" viewBox="0 0 152 113" fill="none" xmlns="http://www.w3.org/2000/svg">
<path opacity="0.3" d="M148.392 23.8341L148.385 23.8213L148.378 23.8089L140.363 9.83386L140.363 9.8338L140.357 9.82391C136.698 3.77298 131.119 0.745447 123.694 0.745448L27.5122 0.745452C18.8054 0.745452 12.1831 2.88766 7.74022 7.26006C3.29581 11.6339 1.11718 18.1556 1.11718 26.7294L1.11719 78.7249C1.11719 82.4941 1.88553 85.9285 3.43066 89.0188L3.43704 89.0315L3.44414 89.0439L11.4593 103.019L11.4591 103.019L11.4651 103.029C15.1238 109.08 20.7038 112.107 28.1287 112.107L124.31 112.107C133.017 112.107 139.639 109.965 144.082 105.593C148.527 101.219 150.705 94.6972 150.705 86.1235L150.705 34.128C150.705 30.3588 149.937 26.9243 148.392 23.8341ZM136.552 92.4944C136.552 93.5135 136.298 94.1859 135.876 94.6071C135.455 95.0283 134.783 95.2827 133.764 95.2827L75.9112 95.2827L18.0585 95.2827C17.0394 95.2827 16.367 95.0283 15.9458 94.6071C15.5246 94.1859 15.2702 93.5135 15.2702 92.4944L15.2702 56.4264L15.2702 20.3584C15.2702 19.3394 15.5246 18.667 15.9458 18.2458C16.367 17.8246 17.0394 17.5702 18.0585 17.5702L75.9112 17.5702L133.764 17.5702C134.783 17.5702 135.455 17.8246 135.876 18.2458C136.298 18.667 136.552 19.3394 136.552 20.3584L136.552 56.4264L136.552 92.4944Z" stroke="#5549FF"/>
</svg>
