<svg width="114" height="85" viewBox="0 0 114 85" fill="none" xmlns="http://www.w3.org/2000/svg">
<path d="M103.297 69.5962C103.297 71.2682 102.461 72.1042 100.789 72.1042L56.6644 72.1042L12.5398 72.1042C10.8679 72.1042 10.0319 71.2682 10.0319 69.5963L10.0319 42.087L10.0319 14.5777C10.0319 12.9057 10.8679 12.0697 12.5398 12.0697L56.6644 12.0697L100.789 12.0697C102.461 12.0697 103.297 12.9057 103.297 14.5777L103.297 42.087L103.297 69.5962ZM113.329 25.0798C113.329 22.2583 112.754 19.6981 111.605 17.3992L105.491 6.74028C102.774 2.24684 98.6468 0.000125388 93.1084 0.00012563L19.7503 0.000128836C6.58342 0.000129412 -3.39615e-06 6.47903 -2.82974e-06 19.4369L-1.09627e-06 59.0941C-9.72938e-07 61.9156 0.574745 64.4758 1.72423 66.7748L7.83741 77.4337C10.5544 81.9271 14.6821 84.1738 20.2205 84.1738L93.5786 84.1738C106.745 84.1738 113.329 77.6949 113.329 64.7371L113.329 25.0798Z" fill="#5549FF" fill-opacity="0.3"/>
<path d="M111.605 17.3992C112.754 19.6981 113.329 22.2583 113.329 25.0798L113.329 64.7371C113.329 77.6949 106.746 84.1738 93.5787 84.1738L18.5945 84.1738C16.4461 84.0233 11.4549 82.7052 8.67773 78.6372L96.7484 78.6372C100.509 78.2058 108.031 74.8219 108.031 64.7371L108.031 11.1668L111.605 17.3992Z" fill="url(#paint0_radial_1695_7768)" fill-opacity="0.3"/>
<path d="M100.789 72.354C101.663 72.354 102.365 72.1352 102.847 71.6538C103.328 71.1724 103.547 70.4706 103.547 69.596L103.547 42.0867L103.547 14.5775C103.547 13.7029 103.328 13.0011 102.847 12.5197C102.365 12.0383 101.663 11.8195 100.789 11.8195L56.6643 11.8195L12.5397 11.8195C11.6652 11.8195 10.9634 12.0383 10.482 12.5197C10.0005 13.0011 9.78174 13.7029 9.78174 14.5775L9.78174 42.0868L9.78174 69.596C9.78174 70.4706 10.0005 71.1724 10.482 71.6538C10.9634 72.1352 11.6652 72.354 12.5397 72.354L56.6643 72.354L100.789 72.354Z" stroke="#5549FF" stroke-opacity="0.3" stroke-width="0.5"/>
<path d="M14.4624 72.2287H13.7558C13.345 72.2287 12.9425 72.1933 12.5511 72.1253C12.1667 72.0845 11.7872 72.0289 11.465 71.9544C11.2193 71.8975 11.0136 71.7675 10.8427 71.5953C8.43269 70.4903 6.75879 68.0564 6.75879 65.2316V12.4218C6.75879 10.1032 8.63839 8.22363 10.957 8.22363H99.0505C101.369 8.22363 103.249 10.1032 103.249 12.4218V14.0263C103.172 13.404 102.691 12.1595 101.382 12.1595H11.7608C11.2095 12.2627 10.1068 12.7379 10.1068 13.8135V69.8003C10.1496 70.2645 10.3541 71.1028 10.8427 71.5953C11.3791 71.8412 11.9521 72.0214 12.5511 72.1253C13.2981 72.2047 14.0636 72.2287 14.4624 72.2287Z" fill="url(#paint1_radial_1695_7768)" fill-opacity="0.3"/>
<defs>
<radialGradient id="paint0_radial_1695_7768" cx="0" cy="0" r="1" gradientUnits="userSpaceOnUse" gradientTransform="translate(102.227 77.8267) rotate(174.369) scale(85.5387 72.1869)">
<stop stop-color="#2C1975"/>
<stop offset="1" stop-color="#4518F7" stop-opacity="0"/>
</radialGradient>
<radialGradient id="paint1_radial_1695_7768" cx="0" cy="0" r="1" gradientUnits="userSpaceOnUse" gradientTransform="translate(15.6025 16.0803) rotate(79.9354) scale(70.322 104.337)">
<stop stop-color="#1F009B"/>
<stop offset="1" stop-color="#4518F7" stop-opacity="0.13"/>
</radialGradient>
</defs>
</svg>
