<svg width="1001" height="490" viewBox="0 0 891 592" fill="none" xmlns="http://www.w3.org/2000/svg">
<rect x="0.499878" y="0.535156" width="889.999" height="590.826" rx="29.5" fill="#F9F9FA" stroke="#D9D9D9"/>
<path opacity="0.7" d="M316.547 183.4V180.775H314.039V183.4C314.027 185.744 312.668 188.393 309.75 189.682L311.156 191.674C313.172 190.83 314.555 189.213 315.328 187.326C316.09 188.967 317.402 190.326 319.289 191.041L320.672 189.049C317.894 187.994 316.558 185.686 316.547 183.4ZM313.641 196.713C313.629 199.162 316.441 200.627 320.906 200.627C325.336 200.627 328.16 199.162 328.172 196.713C328.16 194.275 325.336 192.822 320.906 192.822C316.441 192.822 313.629 194.275 313.641 196.713ZM316.242 196.713C316.23 195.471 317.965 194.791 320.906 194.791C323.801 194.791 325.535 195.471 325.547 196.713C325.535 197.967 323.801 198.646 320.906 198.635C317.965 198.646 316.23 197.967 316.242 196.713ZM321.023 191.814H323.461V186.963H325.57V192.471H328.055V179.486H325.57V184.83H323.461V179.885H321.023V191.814ZM338.437 182.51V180.611H335.812V182.627C335.801 185.686 334.043 188.51 330.539 189.658L331.922 191.768C334.488 190.865 336.258 189.049 337.195 186.74C338.098 188.744 339.715 190.291 342.023 191.111L343.43 189.072C340.113 188.029 338.426 185.393 338.437 182.51ZM334.055 196.572C334.031 199.15 336.785 200.627 341.25 200.627C345.738 200.627 348.48 199.15 348.492 196.572C348.48 193.994 345.738 192.482 341.25 192.494C336.785 192.482 334.031 193.994 334.055 196.572ZM336.633 196.572C336.621 195.236 338.308 194.521 341.25 194.51C344.215 194.521 345.891 195.236 345.891 196.572C345.891 197.861 344.215 198.576 341.25 198.588C338.308 198.576 336.621 197.861 336.633 196.572ZM341.601 185.697H345.82V191.932H348.422V179.463H345.82V183.564H341.601V185.697ZM363.75 186.119H355.969V182.885H363.586V180.775H353.344V188.205H357.187V190.701C355.195 190.76 353.262 190.771 351.516 190.783L351.867 192.869C355.816 192.857 360.68 192.74 365.18 192.119L364.992 190.244C363.34 190.42 361.582 190.537 359.812 190.607V188.205H363.75V186.119ZM354.891 200.229H369.703V198.119H357.516V194.205H354.891V200.229ZM366.469 195.377H369.094V179.463H366.469V195.377ZM395.156 181.408H379.875V183.494H392.531C392.519 186.037 392.519 189.049 391.687 193.174L394.312 193.455C395.133 189.025 395.133 186.084 395.156 183.447V181.408ZM377.859 197.908H397.172V195.775H387.562V188.416H384.984V195.775H377.859V197.908ZM416.719 179.486H414.234V184.502H412.008V179.885H409.547V191.814H412.008V186.635H414.234V191.908H416.719V179.486ZM398.484 190.15L399.726 192.096C405.199 189.869 407.848 186.213 407.836 180.963H399.445V183.072H405.187C404.766 186.166 402.621 188.568 398.484 190.15ZM402.117 194.885H414.117V200.65H416.719V192.775H402.117V194.885ZM441.891 181.525H427.078V183.635H439.289V183.916C439.289 186.67 439.289 189.74 438.469 193.9L441.117 194.135C441.891 189.67 441.891 186.752 441.891 183.916V181.525ZM425.039 197.744H444.351V195.611H425.039V197.744ZM465.117 189.799H445.758V191.861H454.125V193.971H456.703V191.861H465.117V189.799ZM448.148 181.807H460.125V183.213H448.219V188.51H463.148V186.564H450.797V185.064H462.726V179.838H448.148V181.807ZM448.242 200.393H462.75V192.939H460.172V194.861H450.82V192.939H448.242V200.393ZM450.82 198.4V196.807H460.172V198.4H450.82ZM484.148 179.463H481.523V200.674H484.148V179.463ZM467.203 188.486C467.191 193.092 469.523 195.986 472.734 195.986C475.91 195.986 478.254 193.092 478.266 188.486C478.254 183.916 475.91 181.01 472.734 181.01C469.523 181.01 467.191 183.916 467.203 188.486ZM469.711 188.486C469.711 185.252 470.941 183.354 472.734 183.354C474.516 183.354 475.734 185.252 475.734 188.486C475.734 191.744 474.516 193.631 472.734 193.643C470.941 193.631 469.711 191.744 469.711 188.486ZM497.766 191.861H495.328V200.393H502.969V198.717L504.211 200.557C505.969 199.854 507.176 198.553 507.879 196.994C508.547 198.6 509.742 199.877 511.617 200.557L512.953 198.611C510.34 197.721 509.191 195.576 509.203 193.385V191.697H506.601V193.385C506.601 195.412 505.465 197.533 502.969 198.588V191.861H500.555V194.135H497.766V191.861ZM493.242 185.252C493.242 188.193 495.598 190.221 498.844 190.221C501.598 190.221 503.766 188.662 504.281 186.307H508.101V190.689H510.703V179.463H508.101V184.15H504.269C503.73 181.854 501.574 180.318 498.844 180.33C495.598 180.318 493.242 182.357 493.242 185.252ZM495.726 185.252C495.726 183.576 497.016 182.475 498.844 182.486C500.625 182.475 501.902 183.576 501.914 185.252C501.902 186.963 500.625 188.088 498.844 188.088C497.016 188.088 495.726 186.963 495.726 185.252ZM497.766 198.4V196.08H500.555V198.4H497.766ZM518.601 192.166H516.023V200.393H530.531V192.166H527.93V194.182H518.601V192.166ZM513.703 190.971H533.016V188.838H513.703V190.971ZM514.687 185.674L515.648 187.736C519.176 187.256 521.988 185.686 523.359 183.529C524.719 185.674 527.519 187.256 531.07 187.736L531.984 185.674C527.601 185.158 524.695 182.779 524.695 180.494V179.697H522.023V180.494C522.012 182.85 519.117 185.123 514.687 185.674ZM518.601 198.33V196.174H527.93V198.33H518.601ZM552.117 179.463H549.539V200.65H552.117V179.463ZM535.664 195.33H537.492C540.785 195.342 544.242 195.096 547.969 194.322L547.641 192.143C544.371 192.799 541.207 193.057 538.242 193.104V181.525H535.664V195.33ZM571.781 179.463H569.18V200.674H571.781V189.635H575.039V187.502H571.781V179.463ZM556.055 195.494H557.812C561.633 195.494 564.48 195.4 567.773 194.838L567.469 192.635C564.562 193.139 561.949 193.303 558.656 193.314V183.588H565.969V181.479H556.055V195.494ZM578.508 198.752C579.48 198.752 580.312 197.932 580.312 196.924C580.312 195.939 579.48 195.131 578.508 195.119C577.5 195.131 576.668 195.939 576.68 196.924C576.668 197.932 577.5 198.752 578.508 198.752ZM190.465 239.346H196.441V237.049H193.324V219.166H196.441V216.869H190.465V239.346ZM214.98 217.408H199.699V219.494H212.355C212.344 222.037 212.344 225.049 211.512 229.174L214.137 229.455C214.957 225.025 214.957 222.084 214.98 219.447V217.408ZM197.683 233.908H216.996V231.775H207.387V224.416H204.808V231.775H197.683V233.908ZM236.543 215.486H234.058V220.502H231.832V215.885H229.371V227.814H231.832V222.635H234.058V227.908H236.543V215.486ZM218.308 226.15L219.551 228.096C225.023 225.869 227.672 222.213 227.66 216.963H219.269V219.072H225.012C224.59 222.166 222.445 224.568 218.308 226.15ZM221.941 230.885H233.941V236.65H236.543V228.775H221.941V230.885ZM261.715 217.525H246.902V219.635H259.113V219.916C259.113 222.67 259.113 225.74 258.293 229.9L260.941 230.135C261.715 225.67 261.715 222.752 261.715 219.916V217.525ZM244.863 233.744H264.176V231.611H244.863V233.744ZM284.941 225.799H265.582V227.861H273.949V229.971H276.527V227.861H284.941V225.799ZM267.973 217.807H279.949V219.213H268.043V224.51H282.973V222.564H270.621V221.064H282.551V215.838H267.973V217.807ZM268.066 236.393H282.574V228.939H279.996V230.861H270.644V228.939H268.066V236.393ZM270.644 234.4V232.807H279.996V234.4H270.644ZM298.652 219.4V216.775H296.144V219.4C296.133 221.744 294.773 224.393 291.855 225.682L293.262 227.674C295.277 226.83 296.66 225.213 297.433 223.326C298.195 224.967 299.508 226.326 301.394 227.041L302.777 225.049C300 223.994 298.664 221.686 298.652 219.4ZM295.746 232.713C295.734 235.162 298.547 236.627 303.012 236.627C307.441 236.627 310.266 235.162 310.277 232.713C310.266 230.275 307.441 228.822 303.012 228.822C298.547 228.822 295.734 230.275 295.746 232.713ZM298.348 232.713C298.336 231.471 300.07 230.791 303.012 230.791C305.906 230.791 307.641 231.471 307.652 232.713C307.641 233.967 305.906 234.646 303.012 234.635C300.07 234.646 298.336 233.967 298.348 232.713ZM303.129 227.814H305.566V222.963H307.676V228.471H310.16V215.486H307.676V220.83H305.566V215.885H303.129V227.814ZM320.543 218.51V216.611H317.918V218.627C317.906 221.686 316.148 224.51 312.644 225.658L314.027 227.768C316.594 226.865 318.363 225.049 319.301 222.74C320.203 224.744 321.82 226.291 324.129 227.111L325.535 225.072C322.219 224.029 320.531 221.393 320.543 218.51ZM316.16 232.572C316.137 235.15 318.891 236.627 323.355 236.627C327.844 236.627 330.586 235.15 330.598 232.572C330.586 229.994 327.844 228.482 323.355 228.494C318.891 228.482 316.137 229.994 316.16 232.572ZM318.738 232.572C318.726 231.236 320.414 230.521 323.355 230.51C326.32 230.521 327.996 231.236 327.996 232.572C327.996 233.861 326.32 234.576 323.355 234.588C320.414 234.576 318.726 233.861 318.738 232.572ZM323.707 221.697H327.926V227.932H330.527V215.463H327.926V219.564H323.707V221.697ZM339.34 239.346V216.869H333.363V219.166H336.48V237.049H333.363V239.346H339.34ZM365.965 215.463H363.387V223.057H359.074V217.104H356.519V222.377H351.621V217.104H348.996V231.541H359.074V225.189H363.387V236.674H365.965V215.463ZM351.621 229.455V224.416H356.519V229.455H351.621ZM388.254 227.018H368.894V229.08H388.254V227.018ZM371.332 236.229H386.262V234.119H373.887V230.299H371.332V236.229ZM371.379 225.471H386.098V223.479H373.98V221.791H385.418V219.846H373.98V218.205H385.933V216.189H371.379V225.471ZM399.316 215.791C394.5 215.803 391.676 217.08 391.676 219.424C391.676 221.791 394.5 223.068 399.316 223.08C404.144 223.068 406.945 221.791 406.957 219.424C406.945 217.08 404.144 215.803 399.316 215.791ZM389.683 226.291H408.996V224.205H389.683V226.291ZM391.957 229.643H404.027V231.049H391.98V236.463H407.168V234.471H394.535V232.9H406.582V227.721H391.957V229.643ZM394.418 219.424C394.406 218.334 396.094 217.713 399.316 217.713C402.586 217.713 404.262 218.334 404.262 219.424C404.262 220.596 402.586 221.135 399.316 221.135C396.094 221.135 394.406 220.596 394.418 219.424ZM433.23 220.033H421.16V215.744H418.605V222.119H433.23V220.033ZM416.098 225.658H424.465V227.51H418.394V229.479H430.512V230.955H418.418V236.463H433.793V234.447H421.043V232.783H433.09V227.51H427.019V225.658H435.457V223.549H416.098V225.658ZM454.605 215.463H452.004V223.268H448.371V225.4H452.004V236.674H454.605V215.463ZM437.566 219.424H444.598V222.963H437.637V231.705H439.324C442.969 231.693 445.805 231.576 448.957 231.025L448.746 228.893C445.898 229.408 443.367 229.514 440.215 229.525V225.072H447.152V217.314H437.566V219.424ZM480.598 217.408H465.316V219.494H477.973C477.961 222.037 477.961 225.049 477.129 229.174L479.754 229.455C480.574 225.025 480.574 222.084 480.598 219.447V217.408ZM463.301 233.908H482.613V231.775H473.004V224.416H470.426V231.775H463.301V233.908ZM502.16 215.486H499.676V220.502H497.449V215.885H494.988V227.814H497.449V222.635H499.676V227.908H502.16V215.486ZM483.926 226.15L485.168 228.096C490.641 225.869 493.289 222.213 493.277 216.963H484.887V219.072H490.629C490.207 222.166 488.062 224.568 483.926 226.15ZM487.558 230.885H499.558V236.65H502.16V228.775H487.558V230.885ZM521.637 217.525H506.824V219.635H519.035V219.916C519.035 222.67 519.035 225.74 518.215 229.9L520.863 230.135C521.637 225.67 521.637 222.752 521.637 219.916V217.525ZM504.785 233.744H524.098V231.611H504.785V233.744ZM544.863 225.799H525.504V227.861H533.871V229.971H536.449V227.861H544.863V225.799ZM527.894 217.807H539.871V219.213H527.965V224.51H542.894V222.564H530.543V221.064H542.473V215.838H527.894V217.807ZM527.988 236.393H542.496V228.939H539.918V230.861H530.566V228.939H527.988V236.393ZM530.566 234.4V232.807H539.918V234.4H530.566ZM555.902 215.791C551.086 215.803 548.262 217.08 548.262 219.424C548.262 221.791 551.086 223.068 555.902 223.08C560.73 223.068 563.531 221.791 563.543 219.424C563.531 217.08 560.73 215.803 555.902 215.791ZM546.269 226.291H565.582V224.205H546.269V226.291ZM548.543 229.643H560.613V231.049H548.566V236.463H563.754V234.471H551.121V232.9H563.168V227.721H548.543V229.643ZM551.004 219.424C550.992 218.334 552.68 217.713 555.902 217.713C559.172 217.713 560.848 218.334 560.848 219.424C560.848 220.596 559.172 221.135 555.902 221.135C552.68 221.135 550.992 220.596 551.004 219.424ZM579.316 219.4V216.775H576.808V219.4C576.797 221.744 575.437 224.393 572.519 225.682L573.926 227.674C575.941 226.83 577.324 225.213 578.098 223.326C578.859 224.967 580.172 226.326 582.058 227.041L583.441 225.049C580.664 223.994 579.328 221.686 579.316 219.4ZM576.41 232.713C576.398 235.162 579.211 236.627 583.676 236.627C588.105 236.627 590.93 235.162 590.941 232.713C590.93 230.275 588.105 228.822 583.676 228.822C579.211 228.822 576.398 230.275 576.41 232.713ZM579.012 232.713C579 231.471 580.734 230.791 583.676 230.791C586.57 230.791 588.305 231.471 588.316 232.713C588.305 233.967 586.57 234.646 583.676 234.635C580.734 234.646 579 233.967 579.012 232.713ZM583.793 227.814H586.23V222.963H588.34V228.471H590.824V215.486H588.34V220.83H586.23V215.885H583.793V227.814ZM601.207 218.51V216.611H598.582V218.627C598.57 221.686 596.812 224.51 593.308 225.658L594.691 227.768C597.258 226.865 599.027 225.049 599.965 222.74C600.867 224.744 602.484 226.291 604.793 227.111L606.199 225.072C602.883 224.029 601.195 221.393 601.207 218.51ZM596.824 232.572C596.801 235.15 599.555 236.627 604.019 236.627C608.508 236.627 611.25 235.15 611.262 232.572C611.25 229.994 608.508 228.482 604.019 228.494C599.555 228.482 596.801 229.994 596.824 232.572ZM599.402 232.572C599.391 231.236 601.078 230.521 604.019 230.51C606.984 230.521 608.66 231.236 608.66 232.572C608.66 233.861 606.984 234.576 604.019 234.588C601.078 234.576 599.391 233.861 599.402 232.572ZM604.371 221.697H608.59V227.932H611.191V215.463H608.59V219.564H604.371V221.697ZM624.527 218.838H620.66V216.072H618.082V218.838H614.144V220.924H624.527V218.838ZM614.754 226.971C614.73 229.912 616.687 231.963 619.371 231.963C622.066 231.963 623.988 229.912 623.988 226.971C623.988 224.088 622.066 222.037 619.371 222.049C616.687 222.037 614.73 224.088 614.754 226.971ZM617.051 226.971C617.039 225.307 618 224.205 619.371 224.205C620.73 224.205 621.691 225.307 621.691 226.971C621.691 228.682 620.73 229.748 619.371 229.736C618 229.748 617.039 228.682 617.051 226.971ZM625.418 235.689H627.855V226.291H629.918V236.65H632.402V215.463H629.918V224.182H627.855V215.908H625.418V235.689ZM654.293 231.963H645.855V227.838H652.09V216.869H649.488V220.338H639.668V216.869H637.066V227.838H643.277V231.963H634.933V234.096H654.293V231.963ZM639.668 225.729V222.424H649.488V225.729H639.668ZM662.285 221.018V217.338H659.777V221.135C659.766 224.744 658.406 228.482 655.324 230.346L656.941 232.291C658.933 231.072 660.293 228.916 661.055 226.373C661.758 228.682 663 230.65 664.91 231.799L666.34 229.807C663.469 228.002 662.297 224.439 662.285 221.018ZM664.066 224.908H667.09V235.619H669.551V215.838H667.09V222.752H664.066V224.908ZM671.449 236.65H673.957V215.463H671.449V236.65ZM695.777 231.939H691.324V226.525C692.965 225.553 693.961 224.064 693.949 222.213C693.961 218.838 690.633 216.611 686.051 216.611C681.492 216.611 678.187 218.838 678.199 222.213C678.187 224.088 679.207 225.611 680.894 226.584V231.939H676.418V234.072H695.777V231.939ZM680.754 222.213C680.742 220.01 682.887 218.662 686.051 218.674C689.203 218.662 691.394 220.01 691.394 222.213C691.394 224.381 689.203 225.764 686.051 225.752C682.887 225.764 680.742 224.381 680.754 222.213ZM683.473 231.939V227.533C684.269 227.697 685.137 227.791 686.051 227.791C686.988 227.791 687.867 227.697 688.676 227.521V231.939H683.473ZM699.738 234.752C700.711 234.752 701.543 233.932 701.543 232.924C701.543 231.939 700.711 231.131 699.738 231.119C698.73 231.131 697.898 231.939 697.91 232.924C697.898 233.932 698.73 234.752 699.738 234.752Z" fill="#555555"/>
<path opacity="0.3" d="M517.774 318.588L517.768 318.575L517.761 318.563L509.746 304.588L509.746 304.588L509.74 304.578C506.081 298.527 500.501 295.499 493.076 295.499L396.895 295.499C388.188 295.499 381.566 297.642 377.123 302.014C372.679 306.388 370.5 312.91 370.5 321.483L370.5 373.479C370.5 377.248 371.268 380.682 372.813 383.773L372.82 383.785L372.827 383.798L380.842 397.773L380.842 397.773L380.848 397.783C384.507 403.834 390.087 406.861 397.512 406.861L493.693 406.861C502.4 406.861 509.022 404.719 513.465 400.347C517.909 395.973 520.088 389.451 520.088 380.877L520.088 328.882C520.088 325.113 519.32 321.678 517.774 318.588ZM505.935 387.248C505.935 388.267 505.681 388.94 505.259 389.361C504.838 389.782 504.166 390.037 503.147 390.037L445.294 390.037L387.441 390.037C386.422 390.037 385.75 389.782 385.329 389.361C384.907 388.94 384.653 388.267 384.653 387.248L384.653 351.18L384.653 315.112C384.653 314.093 384.907 313.421 385.329 313C385.75 312.578 386.422 312.324 387.441 312.324L445.294 312.324L503.147 312.324C504.166 312.324 504.838 312.578 505.259 313C505.681 313.421 505.935 314.093 505.935 315.112L505.935 351.18L505.935 387.248Z" stroke="#5549FF"/>
</svg>
