<svg width="16" height="17" viewBox="0 0 16 17" fill="none" xmlns="http://www.w3.org/2000/svg">
<ellipse cx="7.6875" cy="8.20685" rx="7.5" ry="7.4339" fill="#737373"/>
<path d="M6.89169 10.3409V10.2855C6.89785 9.69768 6.9594 9.22988 7.07635 8.8821C7.1933 8.53433 7.35949 8.25272 7.57493 8.03729C7.79036 7.82185 8.04889 7.62334 8.3505 7.44176C8.53208 7.33097 8.69519 7.20017 8.83984 7.04936C8.98449 6.89548 9.09837 6.71851 9.18146 6.51847C9.26764 6.31842 9.31072 6.09683 9.31072 5.85369C9.31072 5.55208 9.23994 5.29048 9.09837 5.06889C8.95679 4.8473 8.76752 4.67649 8.53054 4.55646C8.29356 4.43643 8.03042 4.37642 7.74112 4.37642C7.48875 4.37642 7.24562 4.42874 7.01172 4.53338C6.77782 4.63802 6.58239 4.80268 6.42543 5.02734C6.26847 5.25201 6.17768 5.54593 6.15305 5.90909H4.9897C5.01432 5.38589 5.14974 4.93809 5.39595 4.5657C5.64524 4.1933 5.97301 3.90862 6.37926 3.71165C6.78859 3.51468 7.24254 3.41619 7.74112 3.41619C8.28279 3.41619 8.75367 3.52391 9.15376 3.73935C9.55694 3.95478 9.86778 4.25024 10.0863 4.62571C10.3079 5.00118 10.4187 5.42898 10.4187 5.90909C10.4187 6.24763 10.3664 6.55386 10.2617 6.82777C10.1602 7.10168 10.0124 7.34635 9.81854 7.56179C9.62772 7.77723 9.3969 7.96804 9.12607 8.13423C8.85523 8.3035 8.63826 8.48201 8.47514 8.66974C8.31203 8.8544 8.19354 9.07446 8.11967 9.3299C8.04581 9.58535 8.0058 9.90388 7.99964 10.2855V10.3409H6.89169ZM7.4826 13.0739C7.25485 13.0739 7.05942 12.9923 6.89631 12.8292C6.73319 12.6661 6.65163 12.4706 6.65163 12.2429C6.65163 12.0152 6.73319 11.8197 6.89631 11.6566C7.05942 11.4935 7.25485 11.4119 7.4826 11.4119C7.71035 11.4119 7.90578 11.4935 8.06889 11.6566C8.23201 11.8197 8.31357 12.0152 8.31357 12.2429C8.31357 12.3937 8.27509 12.5322 8.19815 12.6584C8.12429 12.7846 8.02427 12.8861 7.89808 12.9631C7.77498 13.0369 7.63648 13.0739 7.4826 13.0739Z" fill="white"/>
</svg>
