<svg width="233" height="120" viewBox="0 0 233 120" fill="none" xmlns="http://www.w3.org/2000/svg">
<g filter="url(#filter0_d_843_3684)">
<mask id="path-1-inside-1_843_3684" fill="white">
<path fill-rule="evenodd" clip-rule="evenodd" d="M10.2695 4C6.95582 4 4.26953 6.68629 4.26953 10V100.627C4.26953 103.941 6.95582 106.627 10.2695 106.627H115.186L120.188 115.291C120.572 115.957 121.535 115.957 121.92 115.291L126.921 106.627H222.999C226.313 106.627 228.999 103.941 228.999 100.627V10C228.999 6.68629 226.313 4 222.999 4H10.2695Z"/>
</mask>
<path fill-rule="evenodd" clip-rule="evenodd" d="M10.2695 4C6.95582 4 4.26953 6.68629 4.26953 10V100.627C4.26953 103.941 6.95582 106.627 10.2695 106.627H115.186L120.188 115.291C120.572 115.957 121.535 115.957 121.92 115.291L126.921 106.627H222.999C226.313 106.627 228.999 103.941 228.999 100.627V10C228.999 6.68629 226.313 4 222.999 4H10.2695Z" fill="white"/>
<path d="M115.186 106.627L116.052 106.127L115.763 105.627H115.186V106.627ZM120.188 115.291L119.322 115.791L119.322 115.791L120.188 115.291ZM121.92 115.291L122.786 115.791L122.786 115.791L121.92 115.291ZM126.921 106.627V105.627H126.344L126.055 106.127L126.921 106.627ZM5.26953 10C5.26953 7.23857 7.50811 5 10.2695 5V3C6.40354 3 3.26953 6.134 3.26953 10H5.26953ZM5.26953 100.627V10H3.26953V100.627H5.26953ZM10.2695 105.627C7.50811 105.627 5.26953 103.389 5.26953 100.627H3.26953C3.26953 104.493 6.40354 107.627 10.2695 107.627V105.627ZM115.186 105.627H10.2695V107.627H115.186V105.627ZM121.054 114.791L116.052 106.127L114.32 107.127L119.322 115.791L121.054 114.791ZM121.054 114.791H121.054L119.322 115.791C120.091 117.124 122.016 117.124 122.786 115.791L121.054 114.791ZM126.055 106.127L121.054 114.791L122.786 115.791L127.787 107.127L126.055 106.127ZM222.999 105.627H126.921V107.627H222.999V105.627ZM227.999 100.627C227.999 103.389 225.761 105.627 222.999 105.627V107.627C226.865 107.627 229.999 104.493 229.999 100.627H227.999ZM227.999 10V100.627H229.999V10H227.999ZM222.999 5C225.761 5 227.999 7.23858 227.999 10H229.999C229.999 6.13401 226.865 3 222.999 3V5ZM10.2695 5H222.999V3H10.2695V5Z" fill="#DFDFDF" mask="url(#path-1-inside-1_843_3684)"/>
</g>
<defs>
<filter id="filter0_d_843_3684" x="0.269531" y="0" width="232.73" height="119.791" filterUnits="userSpaceOnUse" color-interpolation-filters="sRGB">
<feFlood flood-opacity="0" result="BackgroundImageFix"/>
<feColorMatrix in="SourceAlpha" type="matrix" values="0 0 0 0 0 0 0 0 0 0 0 0 0 0 0 0 0 0 127 0" result="hardAlpha"/>
<feOffset/>
<feGaussianBlur stdDeviation="2"/>
<feComposite in2="hardAlpha" operator="out"/>
<feColorMatrix type="matrix" values="0 0 0 0 0 0 0 0 0 0 0 0 0 0 0 0 0 0 0.15 0"/>
<feBlend mode="normal" in2="BackgroundImageFix" result="effect1_dropShadow_843_3684"/>
<feBlend mode="normal" in="SourceGraphic" in2="effect1_dropShadow_843_3684" result="shape"/>
</filter>
</defs>
</svg>
