<svg width="21" height="21" viewBox="0 0 21 21" fill="none" xmlns="http://www.w3.org/2000/svg">
<g clip-path="url(#clip0_713_1528)">
<path d="M19.849 19.617L13.7762 13.507C14.9081 12.1514 15.5902 10.4073 15.5902 8.50293C15.5902 4.18824 12.0924 0.69043 7.77774 0.69043C3.46305 0.69043 -0.0347595 4.18824 -0.0347595 8.50293C-0.0347595 12.8176 3.46305 16.3154 7.77774 16.3154C9.73805 16.3154 11.5287 15.5917 12.9006 14.3986L18.9649 20.5011C19.209 20.7451 19.6049 20.7451 19.849 20.5011C20.0928 20.257 20.0928 19.8614 19.849 19.617H19.849ZM7.77774 15.0757C4.14774 15.0757 1.20493 12.1329 1.20493 8.50293C1.20493 4.87293 4.14774 1.93012 7.77774 1.93012C11.4077 1.93012 14.3506 4.87293 14.3506 8.50293C14.3506 12.1329 11.4077 15.0757 7.77774 15.0757Z" fill="black"/>
</g>
<defs>
<clipPath id="clip0_713_1528">
<rect width="20" height="20" fill="white" transform="translate(0.0318298 0.69043)"/>
</clipPath>
</defs>
</svg>
