<svg width="28" height="27" viewBox="0 0 28 27" fill="none" xmlns="http://www.w3.org/2000/svg">
<path d="M12.4833 1.58949C13.1583 0.430526 14.8326 0.430525 15.5077 1.58949L18.5084 6.74139C18.8263 7.28725 19.3591 7.67431 19.9765 7.808L25.8035 9.06982C27.1143 9.35368 27.6317 10.9461 26.7381 11.9462L22.7656 16.3921C22.3447 16.8631 22.1412 17.4894 22.2048 18.1179L22.8054 24.0496C22.9405 25.384 21.586 26.3682 20.3586 25.8273L14.9028 23.4231C14.3247 23.1684 13.6662 23.1684 13.0882 23.4231L7.63233 25.8273C6.40499 26.3682 5.05044 25.384 5.18555 24.0496L5.78613 18.1179C5.84977 17.4894 5.64628 16.8631 5.22538 16.3921L1.25291 11.9462C0.35926 10.9461 0.876651 9.35368 2.18749 9.06983L8.01451 7.808C8.6319 7.67431 9.16465 7.28725 9.48258 6.7414L12.4833 1.58949Z" fill="#333333" stroke="#E3E3E3" stroke-width="0.5"/>
</svg>
