<svg width="18" height="20" viewBox="0 0 18 20" fill="none" xmlns="http://www.w3.org/2000/svg">
<path fill-rule="evenodd" clip-rule="evenodd" d="M16.0154 2.08053H11.9747C11.5687 0.95921 10.5054 0.147217 9.24875 0.147217C7.9921 0.147217 6.92877 0.95921 6.52278 2.08053H2.48215C1.41882 2.08053 0.548828 2.95053 0.548828 4.01385V17.5471C0.548828 18.6104 1.41882 19.4804 2.48215 19.4804H16.0154C17.0787 19.4804 17.9487 18.6104 17.9487 17.5471V4.01385C17.9487 2.95053 17.0787 2.08053 16.0154 2.08053ZM9.24687 2.08057C9.77853 2.08057 10.2135 2.51556 10.2135 3.04723C10.2135 3.57889 9.77853 4.01388 9.24687 4.01388C8.71521 4.01388 8.28021 3.57889 8.28021 3.04723C8.28021 2.51556 8.71521 2.08057 9.24687 2.08057ZM10.2165 15.6137H5.3832C4.85154 15.6137 4.41654 15.1787 4.41654 14.6471C4.41654 14.1154 4.85154 13.6804 5.3832 13.6804H10.2165C10.7482 13.6804 11.1832 14.1154 11.1832 14.6471C11.1832 15.1787 10.7482 15.6137 10.2165 15.6137ZM13.1165 11.7472H5.3832C4.85154 11.7472 4.41654 11.3122 4.41654 10.7805C4.41654 10.2488 4.85154 9.81384 5.3832 9.81384H13.1165C13.6481 9.81384 14.0831 10.2488 14.0831 10.7805C14.0831 11.3122 13.6481 11.7472 13.1165 11.7472ZM13.1165 7.88046H5.3832C4.85154 7.88046 4.41654 7.44546 4.41654 6.9138C4.41654 6.38214 4.85154 5.94714 5.3832 5.94714H13.1165C13.6481 5.94714 14.0831 6.38214 14.0831 6.9138C14.0831 7.44546 13.6481 7.88046 13.1165 7.88046Z" fill="#6B7A99"/>
</svg>
