<svg width="28" height="27" viewBox="0 0 28 27" fill="none" xmlns="http://www.w3.org/2000/svg">
<path d="M12.4833 1.46037C13.1583 0.301407 14.8326 0.301405 15.5077 1.46037L18.5084 6.61228C18.8263 7.15813 19.3591 7.54519 19.9765 7.67888L25.8035 8.9407C27.1143 9.22456 27.6317 10.8169 26.7381 11.8171L22.7656 16.2629C22.3447 16.734 22.1412 17.3603 22.2048 17.9888L22.8054 23.9205C22.9405 25.2549 21.586 26.239 20.3586 25.6982L14.9028 23.294C14.3247 23.0393 13.6662 23.0393 13.0882 23.294L7.63233 25.6982C6.40499 26.239 5.05044 25.2549 5.18555 23.9205L5.78613 17.9888C5.84977 17.3603 5.64628 16.734 5.22538 16.2629L1.25291 11.8171C0.35926 10.8169 0.876651 9.22456 2.18749 8.94071L8.01451 7.67888C8.6319 7.54519 9.16465 7.15813 9.48258 6.61228L12.4833 1.46037Z" fill="#E3E3E3" stroke="#333333" stroke-width="0.5"/>
</svg>
