<svg width="449" height="67" viewBox="0 0 449 67" fill="none" xmlns="http://www.w3.org/2000/svg">
<g filter="url(#filter0_d_1647_15012)">
<path fill-rule="evenodd" clip-rule="evenodd" d="M28 4C14.7452 4 4 14.7452 4 28V28.6095C4 41.8643 14.7452 52.6095 28 52.6095H219.601L225.377 62.6154L231.154 52.6095H420.651C433.905 52.6095 444.651 41.8643 444.651 28.6095V28C444.651 14.7452 433.905 4 420.651 4H28Z" fill="white"/>
</g>
<path d="M32.956 21.0957V21.2577C32.956 25.6857 31.336 29.3217 26.188 31.8597L26.998 33.0117C32.83 30.1137 34.414 25.7937 34.414 21.0957H32.956ZM27.07 21.0957V22.3017H33.838V21.0957H27.07ZM32.722 25.1277L26.26 25.5597L26.494 26.8917L32.722 26.2797V25.1277ZM37.042 19.3857V35.6757H38.554V19.3857H37.042ZM38.14 25.9917V27.2337H41.146V25.9917H38.14ZM54.4466 19.4037V35.6757H55.9406V19.4037H54.4466ZM42.9986 21.1497V22.3737H52.2146V21.1497H42.9986ZM42.7466 31.6617C45.7166 31.6437 49.6226 31.5897 53.1326 31.0317L53.0426 29.9337C49.5866 30.3477 45.5906 30.3837 42.5666 30.3837L42.7466 31.6617ZM44.7986 22.0677V30.7257H46.2386V22.0677H44.7986ZM48.9566 22.0677V30.7257H50.4146V22.0677H48.9566ZM70.1592 19.3857V35.6757H71.6712V19.3857H70.1592ZM71.2572 25.9917V27.2337H74.2632V25.9917H71.2572ZM66.0012 21.1497V21.3837C66.0012 25.6857 63.7512 29.1597 59.2512 31.4457L60.0792 32.5977C65.3352 29.9517 67.4592 25.7757 67.4592 21.1497H66.0012ZM60.0072 21.1497V22.3737H66.7752V21.1497H60.0072ZM80.5343 20.8617V28.4037H88.0043V20.8617H80.5343ZM86.5463 22.0677V27.1977H81.9923V22.0677H86.5463ZM90.9923 19.3857V31.3197H92.4863V19.3857H90.9923ZM92.0183 24.3537V25.5957H94.8983V24.3537H92.0183ZM82.3523 34.0917V35.3157H93.2243V34.0917H82.3523ZM82.3523 30.1857V34.6137H83.8463V30.1857H82.3523ZM102.799 20.6997V21.1857C102.799 23.0397 100.153 24.5157 97.2369 24.8577L97.7769 26.0277C101.143 25.6137 104.131 23.8137 104.131 21.1857V20.6997H102.799ZM103.429 20.6997V21.1857C103.429 23.8137 106.399 25.6137 109.765 26.0277L110.305 24.8577C107.389 24.5337 104.743 23.0397 104.743 21.1857V20.6997H103.429ZM97.7589 20.0697V21.2757H109.801V20.0697H97.7589ZM96.4089 27.5577V28.7817H111.169V27.5577H96.4089ZM103.015 25.1277V28.1517H104.491V25.1277H103.015ZM98.0469 30.4017V31.6077H107.803V35.6757H109.297V30.4017H98.0469ZM119.501 20.5197V21.7617C119.501 24.5337 116.441 27.0177 113.579 27.5577L114.245 28.7997C117.503 28.0617 120.797 25.3077 120.797 21.7617V20.5197H119.501ZM119.771 20.5197V21.7617C119.771 25.3257 123.083 28.0617 126.323 28.7997L126.989 27.5577C124.145 27.0177 121.067 24.5517 121.067 21.7617V20.5197H119.771ZM112.985 32.2557V33.4797H127.727V32.2557H112.985ZM141.424 19.3857V35.6937H142.918V19.3857H141.424ZM138.328 25.6497V26.8737H141.784V25.6497H138.328ZM130.138 30.5457V31.8057H131.38C134.314 31.8057 136.384 31.6977 138.832 31.2657L138.688 30.0237C136.294 30.4557 134.26 30.5457 131.38 30.5457H130.138ZM130.102 20.9157V22.1397H135.898V25.3977H130.138V30.9237H131.614V26.6217H137.374V20.9157H130.102ZM146.085 28.7277V29.9517H160.845V28.7277H146.085ZM152.673 29.4837V35.6757H154.149V29.4837H152.673ZM153.429 20.0517C150.045 20.0517 147.741 21.4377 147.741 23.6157C147.741 25.7937 150.045 27.1797 153.429 27.1797C156.831 27.1797 159.117 25.7937 159.117 23.6157C159.117 21.4377 156.831 20.0517 153.429 20.0517ZM153.429 21.2577C155.913 21.2577 157.587 22.1757 157.587 23.6157C157.587 25.0557 155.913 25.9737 153.429 25.9737C150.945 25.9737 149.253 25.0557 149.253 23.6157C149.253 22.1757 150.945 21.2577 153.429 21.2577ZM171.337 21.3477V22.5717H175.009V21.3477H171.337ZM171.337 24.5517V25.7577H175.009V24.5517H171.337ZM174.541 19.4037V28.9437H176.035V19.4037H174.541ZM166.711 19.9797V21.6717C166.711 24.2277 165.145 26.4957 162.679 27.4317L163.489 28.6017C166.207 27.5217 167.935 24.8757 167.935 21.6717V19.9797H166.711ZM166.963 19.9797V21.6717C166.963 24.6777 168.691 27.2697 171.283 28.3497L172.111 27.1617C169.753 26.2437 168.169 24.0297 168.169 21.6717V19.9797H166.963ZM166.801 29.5377V30.2577C166.801 31.8417 165.595 33.6057 163.543 34.3617L164.299 35.4777C166.639 34.5777 167.971 32.3997 167.971 30.2577V29.5377H166.801ZM167.143 29.5377V30.2577C167.143 32.4357 168.187 34.7037 170.545 35.6217L171.175 34.4877C169.213 33.6957 168.259 31.9137 168.259 30.2577V29.5377H167.143ZM172.831 29.5377V30.2577C172.831 31.6797 171.841 33.5877 169.897 34.4877L170.545 35.6217C172.867 34.6317 173.929 32.1837 173.929 30.2577V29.5377H172.831ZM173.119 29.5377V30.2577C173.119 32.5257 174.433 34.6137 176.791 35.4777L177.565 34.3617C175.477 33.6597 174.289 31.9677 174.289 30.2577V29.5377H173.119ZM190.218 19.3857V35.6937H191.73V19.3857H190.218ZM191.37 25.8117V27.0717H194.394V25.8117H191.37ZM179.904 30.3837V31.6437H181.182C184.242 31.6437 186.384 31.5537 188.886 31.0857L188.724 29.8257C186.294 30.2757 184.188 30.3837 181.182 30.3837H179.904ZM179.904 20.9697V30.9417H181.38V22.1937H187.464V20.9697H179.904ZM203.572 22.2657V23.4897H208.126V22.2657H203.572ZM203.572 25.7397V26.9817H208.162V25.7397H203.572ZM196.516 20.8077V28.4397H203.95V20.8077H196.516ZM202.474 22.0137V27.2337H197.974V22.0137H202.474ZM207.658 19.4217V31.3017H209.152V19.4217H207.658ZM198.694 34.0917V35.3157H209.548V34.0917H198.694ZM198.694 30.2217V34.6497H200.188V30.2217H198.694ZM218.033 21.0237V22.2657H228.509V21.0237H218.033ZM216.485 32.1657V33.4077H231.191V32.1657H216.485ZM222.191 26.3517V32.7777H223.685V26.3517H222.191ZM227.951 21.0237V22.6437C227.951 24.5877 227.951 26.8737 227.339 29.9877L228.833 30.1857C229.427 26.8917 229.427 24.6597 229.427 22.6437V21.0237H227.951ZM245.32 19.4037V28.9977H246.742V19.4037H245.32ZM242.728 23.4897V24.7317H245.806V23.4897H242.728ZM241.774 19.7097V28.9077H243.178V19.7097H241.774ZM235.816 29.7717V30.9957H245.266V35.6757H246.742V29.7717H235.816ZM238.606 20.6097V21.1137C238.606 24.1557 236.734 26.5857 233.116 28.0617L233.854 29.1597C237.958 27.4317 240.118 24.4977 240.118 20.6097H238.606ZM233.764 20.6097V21.8337H239.146V20.6097H233.764ZM256.191 25.7217V26.9637H259.269V25.7217H256.191ZM261.987 19.4037V35.6757H263.427V19.4037H261.987ZM258.765 19.7457V34.8657H260.187V19.7457H258.765ZM253.257 20.7537C251.151 20.7537 249.801 22.9317 249.801 26.4237C249.801 29.9157 251.151 32.0937 253.257 32.0937C255.363 32.0937 256.731 29.9157 256.731 26.4237C256.731 22.9317 255.363 20.7537 253.257 20.7537ZM253.257 22.1397C254.553 22.1397 255.363 23.7957 255.363 26.4237C255.363 29.0517 254.553 30.7077 253.257 30.7077C251.979 30.7077 251.169 29.0517 251.169 26.4237C251.169 23.7957 251.979 22.1397 253.257 22.1397ZM278.545 19.4037V35.6757H279.985V19.4037H278.545ZM271.489 26.0457V27.2517H275.593V26.0457H271.489ZM275.161 19.8177V34.8477H276.565V19.8177H275.161ZM271.687 21.4557V21.7257C271.687 25.5597 269.977 28.7997 266.143 31.1037L267.025 32.1657C271.417 29.5557 273.127 25.7217 273.127 21.4557H271.687ZM266.863 21.4557V22.6797H272.245V21.4557H266.863ZM297.866 19.4037V35.6757H299.378V19.4037H297.866ZM299.018 25.7937V27.0717H302.042V25.7937H299.018ZM287.498 20.7717V31.7697H295.094V20.7717H293.618V25.0737H288.974V20.7717H287.498ZM288.974 26.2617H293.618V30.5457H288.974V26.2617ZM303.427 32.4357V33.6777H318.169V32.4357H303.427ZM310.015 28.9437V32.9577H311.509V28.9437H310.015ZM305.209 20.6097V21.8157H314.875V24.3357H305.263V28.7997H306.739V25.5417H316.351V20.6097H305.209ZM305.263 28.1697V29.3937H316.729V28.1697H305.263ZM332.756 23.8857V25.1097H336.86V23.8857H332.756ZM336.014 19.4217V31.3377H337.508V19.4217H336.014ZM327.122 34.0917V35.3157H337.958V34.0917H327.122ZM327.122 30.2937V34.7217H328.616V30.2937H327.122ZM328.274 21.4377V22.7517C328.274 25.0557 326.6 27.2157 324.17 28.0797L324.944 29.2677C327.662 28.2597 329.498 25.7037 329.498 22.7517V21.4377H328.274ZM328.562 21.4377V22.7337C328.562 25.4877 330.308 27.9357 332.954 28.8897L333.71 27.7197C331.352 26.8917 329.768 24.8397 329.768 22.7337V21.4377H328.562ZM324.638 20.7357V21.9417H333.332V20.7357H324.638ZM347.28 25.0917V28.1337H348.756V25.0917H347.28ZM347.262 19.6557V20.3757C347.262 22.5537 344.472 24.3537 341.556 24.7497L342.132 25.9377C345.444 25.3977 348.558 23.3097 348.558 20.3757V19.6557H347.262ZM347.496 19.6557V20.3757C347.496 23.3097 350.628 25.3797 353.922 25.9377L354.48 24.7497C351.582 24.3537 348.774 22.5537 348.774 20.3757V19.6557H347.496ZM340.674 27.4857V28.6737H355.38V27.4857H340.674ZM348.018 30.0237C344.526 30.0237 342.438 31.0317 342.438 32.8317C342.438 34.6497 344.526 35.6397 348.018 35.6397C351.51 35.6397 353.598 34.6497 353.598 32.8317C353.598 31.0317 351.51 30.0237 348.018 30.0237ZM348.018 31.1757C350.592 31.1757 352.086 31.7697 352.086 32.8317C352.086 33.8937 350.592 34.4877 348.018 34.4877C345.462 34.4877 343.95 33.8937 343.95 32.8317C343.95 31.7697 345.462 31.1757 348.018 31.1757ZM357.215 22.1757V23.3997H365.279V22.1757H357.215ZM361.247 24.4797C359.231 24.4797 357.755 26.0097 357.755 28.2057C357.755 30.3837 359.231 31.9137 361.247 31.9137C363.281 31.9137 364.757 30.3837 364.757 28.2057C364.757 26.0097 363.281 24.4797 361.247 24.4797ZM361.247 25.7577C362.507 25.7577 363.425 26.7657 363.425 28.2057C363.425 29.6457 362.507 30.6537 361.247 30.6537C360.005 30.6537 359.105 29.6457 359.105 28.2057C359.105 26.7657 360.005 25.7577 361.247 25.7577ZM369.581 19.4037V35.6757H371.021V19.4037H369.581ZM366.989 26.2437V27.4857H370.067V26.2437H366.989ZM366.107 19.7637V34.8837H367.511V19.7637H366.107ZM360.527 19.8717V22.9317H362.003V19.8717H360.527ZM373.81 32.3637V33.6057H388.552V32.3637H373.81ZM380.398 28.4757V32.7237H381.892V28.4757H380.398ZM375.538 20.5557V28.8717H386.788V20.5557H385.312V23.4537H377.014V20.5557H375.538ZM377.014 24.6597H385.312V27.6477H377.014V24.6597ZM396.776 25.2177V26.4597H399.89V25.2177H396.776ZM393.734 20.9337V24.0297C393.734 26.8197 392.402 29.7357 390.17 31.0497L391.106 32.1837C393.482 30.7257 394.904 27.4317 394.904 24.0297V20.9337H393.734ZM394.022 20.9337V23.9757C394.022 27.1437 395.336 30.3837 397.676 31.8237L398.54 30.6537C396.398 29.3577 395.174 26.5857 395.174 23.9757V20.9337H394.022ZM402.752 19.4037V35.6757H404.192V19.4037H402.752ZM399.458 19.7457V34.8657H400.862V19.7457H399.458ZM410.527 27.7737V32.6517H412.003V27.7737H410.527ZM416.539 27.7737V32.6517H418.033V27.7737H416.539ZM406.927 32.3637V33.6057H421.669V32.3637H406.927ZM414.271 20.4297C410.815 20.4297 408.349 22.0677 408.349 24.6237C408.349 27.1617 410.815 28.7997 414.271 28.7997C417.709 28.7997 420.175 27.1617 420.175 24.6237C420.175 22.0677 417.709 20.4297 414.271 20.4297ZM414.271 21.6177C416.881 21.6177 418.735 22.8057 418.735 24.6237C418.735 26.4237 416.881 27.6117 414.271 27.6117C411.661 27.6117 409.789 26.4237 409.789 24.6237C409.789 22.8057 411.661 21.6177 414.271 21.6177Z" fill="#6B7A99"/>
<defs>
<filter id="filter0_d_1647_15012" x="0" y="0" width="448.65" height="66.6152" filterUnits="userSpaceOnUse" color-interpolation-filters="sRGB">
<feFlood flood-opacity="0" result="BackgroundImageFix"/>
<feColorMatrix in="SourceAlpha" type="matrix" values="0 0 0 0 0 0 0 0 0 0 0 0 0 0 0 0 0 0 127 0" result="hardAlpha"/>
<feOffset/>
<feGaussianBlur stdDeviation="2"/>
<feComposite in2="hardAlpha" operator="out"/>
<feColorMatrix type="matrix" values="0 0 0 0 0 0 0 0 0 0 0 0 0 0 0 0 0 0 0.18 0"/>
<feBlend mode="normal" in2="BackgroundImageFix" result="effect1_dropShadow_1647_15012"/>
<feBlend mode="normal" in="SourceGraphic" in2="effect1_dropShadow_1647_15012" result="shape"/>
</filter>
</defs>
</svg>
