<svg width="25" height="25" viewBox="0 0 25 25" fill="none" xmlns="http://www.w3.org/2000/svg">
<path d="M5.99707 22.2543C5.44707 22.2543 4.97607 22.0583 4.58407 21.6663C4.19207 21.2743 3.99641 20.8036 3.99707 20.2543V6.25427H5.99707V20.2543H16.9971V22.2543H5.99707ZM9.99707 18.2543C9.44707 18.2543 8.97607 18.0583 8.58407 17.6663C8.19207 17.2743 7.99641 16.8036 7.99707 16.2543V4.25427C7.99707 3.70427 8.19307 3.23327 8.58507 2.84127C8.97707 2.44927 9.44774 2.25361 9.99707 2.25427H18.9971C19.5471 2.25427 20.0181 2.45027 20.4101 2.84227C20.8021 3.23427 20.9977 3.70494 20.9971 4.25427V16.2543C20.9971 16.8043 20.8011 17.2753 20.4091 17.6673C20.0171 18.0593 19.5464 18.2549 18.9971 18.2543H9.99707Z" fill="black"/>
</svg>
