<svg width="31" height="33" viewBox="0 0 31 33" fill="none" xmlns="http://www.w3.org/2000/svg">
<path d="M13.3175 24.1945H5.31755C4.6103 24.1945 3.93202 23.9135 3.43193 23.4134C2.93183 22.9134 2.65088 22.2351 2.65088 21.5278V8.1945C2.65088 7.48725 2.93183 6.80898 3.43193 6.30888C3.93202 5.80878 4.6103 5.52783 5.31755 5.52783H23.9842C24.6915 5.52783 25.3697 5.80878 25.8698 6.30888C26.3699 6.80898 26.6509 7.48725 26.6509 8.1945V16.1945" stroke="white" stroke-width="2" stroke-linecap="round" stroke-linejoin="round"/>
<path d="M2.65088 8.19458L14.6509 16.1946L26.6509 8.19458" stroke="white" stroke-width="2" stroke-linecap="round" stroke-linejoin="round"/>
<circle cx="22.3291" cy="23.1831" r="7.67822" fill="#5549FF"/>
<path d="M17.9775 21.7581C17.4253 21.7581 16.9775 22.2058 16.9775 22.7581C16.9775 23.3103 17.4253 23.7581 17.9775 23.7581V21.7581ZM17.9775 23.7581H26.1318V21.7581H17.9775V23.7581Z" fill="white"/>
<path d="M24.0825 20.1548L26.6807 22.7531L24.0825 25.3513" stroke="white" stroke-width="2" stroke-linecap="round" stroke-linejoin="round"/>
</svg>
